<svg width="504" height="140" viewBox="0 0 504 140" fill="none" xmlns="http://www.w3.org/2000/svg">
<g clip-path="url(#clip0_15_7)">
<path d="M44.0961 125.52C38.6241 125.52 33.5574 124.507 28.8961 122.48C24.3361 120.453 20.3841 117.616 17.0401 113.968C13.6961 110.219 11.0614 105.811 9.13609 100.744C7.31209 95.576 6.40009 89.952 6.40009 83.872C6.40009 77.9947 7.26143 72.5227 8.98409 67.456C10.7068 62.3893 13.0881 58.032 16.1281 54.384C19.2694 50.6347 22.9681 47.7467 27.2241 45.72C31.4801 43.592 36.1921 42.528 41.3601 42.528C46.5281 42.528 51.2401 43.6933 55.4961 46.024C59.8534 48.3547 63.1974 51.648 65.5281 55.904V13.04H94.4081V92.08C94.4081 94.816 94.8134 96.7413 95.6241 97.856C96.4348 98.8693 97.8534 99.4773 99.8801 99.68V124C94.9148 125.013 90.8614 125.52 87.7201 125.52C77.8908 125.52 72.2161 121.821 70.6961 114.424L70.0881 111.536C67.3521 116.4 63.6534 119.947 58.9921 122.176C54.3308 124.405 49.3654 125.52 44.0961 125.52ZM52.0001 101.2C57.2694 101.2 61.8294 98.464 65.6801 92.992V78.704C64.2614 75.1573 62.1841 72.32 59.4481 70.192C56.7121 67.9627 53.8241 66.848 50.7841 66.848C48.6561 66.848 46.6801 67.304 44.8561 68.216C43.1334 69.128 41.6134 70.3947 40.2961 72.016C39.0801 73.6373 38.0668 75.512 37.2561 77.64C36.5468 79.768 36.1921 82.048 36.1921 84.48C36.1921 89.5467 37.6108 93.6 40.4481 96.64C43.3868 99.68 47.2374 101.2 52.0001 101.2ZM166.006 68.672C160.433 68.672 155.366 69.28 150.806 70.496C146.246 71.712 142.851 73.7387 140.622 76.576V124H111.742V44.048H138.19V59.248C141.027 53.8773 144.523 49.7733 148.678 46.936C152.934 43.9973 157.494 42.528 162.358 42.528C164.283 42.528 165.499 42.5787 166.006 42.68V68.672ZM214.344 125.52C207.15 125.52 200.816 124.405 195.344 122.176C189.974 119.845 185.414 116.805 181.664 113.056C178.016 109.205 175.23 104.797 173.304 99.832C171.48 94.7653 170.568 89.496 170.568 84.024C170.568 78.552 171.48 73.3333 173.304 68.368C175.23 63.3013 178.016 58.8933 181.664 55.144C185.414 51.2933 189.974 48.2533 195.344 46.024C200.816 43.6933 207.15 42.528 214.344 42.528C221.438 42.528 227.72 43.6933 233.192 46.024C238.664 48.2533 243.224 51.2933 246.872 55.144C250.622 58.8933 253.408 63.3013 255.232 68.368C257.158 73.3333 258.12 78.552 258.12 84.024C258.12 89.496 257.158 94.7653 255.232 99.832C253.408 104.797 250.622 109.205 246.872 113.056C243.224 116.805 238.664 119.845 233.192 122.176C227.72 124.405 221.438 125.52 214.344 125.52ZM200.208 84.024C200.208 89.3947 201.526 93.6 204.16 96.64C206.795 99.68 210.19 101.2 214.344 101.2C218.499 101.2 221.894 99.68 224.528 96.64C227.163 93.6 228.48 89.3947 228.48 84.024C228.48 78.6533 227.163 74.448 224.528 71.408C221.894 68.368 218.499 66.848 214.344 66.848C210.19 66.848 206.795 68.368 204.16 71.408C201.526 74.448 200.208 78.6533 200.208 84.024ZM268.344 124V44.048H297.224V124H268.344ZM268.344 37.36V13.04H297.224V37.36H268.344ZM345.276 125.52C339.804 125.52 334.737 124.507 330.076 122.48C325.516 120.453 321.564 117.616 318.22 113.968C314.876 110.219 312.241 105.811 310.316 100.744C308.492 95.576 307.58 89.952 307.58 83.872C307.58 77.9947 308.441 72.5227 310.164 67.456C311.886 62.3893 314.268 58.032 317.308 54.384C320.449 50.6347 324.148 47.7467 328.404 45.72C332.66 43.592 337.372 42.528 342.54 42.528C347.708 42.528 352.42 43.6933 356.676 46.024C361.033 48.3547 364.377 51.648 366.708 55.904V13.04H395.588V92.08C395.588 94.816 395.993 96.7413 396.804 97.856C397.614 98.8693 399.033 99.4773 401.06 99.68V124C396.094 125.013 392.041 125.52 388.9 125.52C379.07 125.52 373.396 121.821 371.876 114.424L371.268 111.536C368.532 116.4 364.833 119.947 360.172 122.176C355.51 124.405 350.545 125.52 345.276 125.52ZM353.18 101.2C358.449 101.2 363.009 98.464 366.86 92.992V78.704C365.441 75.1573 363.364 72.32 360.628 70.192C357.892 67.9627 355.004 66.848 351.964 66.848C349.836 66.848 347.86 67.304 346.036 68.216C344.313 69.128 342.793 70.3947 341.476 72.016C340.26 73.6373 339.246 75.512 338.436 77.64C337.726 79.768 337.372 82.048 337.372 84.48C337.372 89.5467 338.79 93.6 341.628 96.64C344.566 99.68 348.417 101.2 353.18 101.2ZM445.906 125.52C438.914 125.52 432.074 124.405 425.386 122.176C418.698 119.845 413.023 116.501 408.362 112.144L418.242 94.816C423.207 98.16 427.97 100.744 432.53 102.568C437.191 104.392 441.447 105.304 445.298 105.304C449.351 105.304 451.378 104.037 451.378 101.504C451.378 100.085 450.567 98.8693 448.946 97.856C447.426 96.8427 444.386 95.6773 439.826 94.36C434.151 92.7387 429.388 91.168 425.538 89.648C421.788 88.0267 418.698 86.304 416.266 84.48C413.935 82.656 412.263 80.6293 411.25 78.4C410.236 76.1707 409.73 73.536 409.73 70.496C409.73 66.4427 410.54 62.6933 412.162 59.248C413.783 55.8027 416.012 52.8133 418.85 50.28C421.788 47.7467 425.234 45.8213 429.186 44.504C433.239 43.0853 437.647 42.376 442.41 42.376C448.287 42.376 453.86 43.136 459.13 44.656C464.5 46.176 469.871 49.2667 475.242 53.928L464.298 71.256C459.332 68.0133 455.178 65.7333 451.834 64.416C448.49 62.9973 445.348 62.288 442.41 62.288C440.687 62.288 439.268 62.6427 438.154 63.352C437.039 63.96 436.482 64.9733 436.482 66.392C436.482 67.912 437.292 69.1787 438.914 70.192C440.535 71.104 443.727 72.168 448.49 73.384C454.266 74.904 459.13 76.5253 463.082 78.248C467.034 79.8693 470.175 81.6933 472.506 83.72C474.938 85.6453 476.66 87.8747 477.674 90.408C478.687 92.84 479.194 95.6773 479.194 98.92C479.194 103.075 478.434 106.773 476.914 110.016C475.394 113.259 473.164 116.045 470.226 118.376C467.388 120.707 463.892 122.48 459.738 123.696C455.684 124.912 451.074 125.52 445.906 125.52Z" fill="black"/>
<path d="M408.483 32.5738C407.963 32.5738 407.476 32.4938 407.023 32.3338C406.583 32.1604 406.203 31.9271 405.883 31.6338C405.563 31.3271 405.309 30.9738 405.123 30.5738C404.936 30.1604 404.843 29.7138 404.843 29.2338C404.843 28.7138 404.949 28.2404 405.163 27.8138C405.389 27.3871 405.703 27.0204 406.103 26.7138C406.503 26.4071 406.976 26.1671 407.523 25.9938C408.069 25.8204 408.676 25.7338 409.343 25.7338C409.783 25.7338 410.209 25.7738 410.623 25.8538C411.036 25.9204 411.396 26.0271 411.703 26.1738V25.6938C411.703 24.4804 411.003 23.8738 409.603 23.8738C409.029 23.8738 408.483 23.9738 407.963 24.1738C407.443 24.3604 406.896 24.6471 406.323 25.0338L405.383 23.0338C406.076 22.5804 406.796 22.2404 407.543 22.0138C408.289 21.7871 409.083 21.6738 409.923 21.6738C411.509 21.6738 412.736 22.0471 413.603 22.7938C414.469 23.5404 414.903 24.6338 414.903 26.0738V28.7738C414.903 29.0938 414.949 29.3204 415.043 29.4538C415.149 29.5738 415.329 29.6471 415.583 29.6738V32.3738C415.303 32.4404 415.049 32.4804 414.823 32.4938C414.596 32.5204 414.389 32.5338 414.203 32.5338C413.603 32.5338 413.149 32.4204 412.843 32.1938C412.536 31.9538 412.343 31.6204 412.263 31.1938L412.203 30.7138C411.736 31.3138 411.176 31.7738 410.523 32.0938C409.883 32.4138 409.203 32.5738 408.483 32.5738ZM409.423 30.2738C409.769 30.2738 410.103 30.2138 410.423 30.0938C410.756 29.9738 411.029 29.8138 411.243 29.6138C411.549 29.3738 411.703 29.1204 411.703 28.8538V27.8538C411.423 27.7471 411.116 27.6671 410.783 27.6138C410.463 27.5471 410.163 27.5138 409.883 27.5138C409.296 27.5138 408.809 27.6471 408.423 27.9138C408.049 28.1804 407.863 28.5271 407.863 28.9538C407.863 29.3404 408.009 29.6604 408.303 29.9138C408.596 30.1538 408.969 30.2738 409.423 30.2738ZM421.302 32.4138C420.608 32.4138 419.975 32.2738 419.402 31.9938C418.828 31.7138 418.335 31.3338 417.922 30.8538C417.522 30.3738 417.208 29.8138 416.982 29.1738C416.755 28.5338 416.642 27.8471 416.642 27.1138C416.642 26.3404 416.762 25.6271 417.002 24.9738C417.242 24.3071 417.575 23.7338 418.002 23.2538C418.428 22.7604 418.942 22.3738 419.542 22.0938C420.142 21.8138 420.802 21.6738 421.522 21.6738C422.322 21.6738 423.015 21.8471 423.602 22.1938C424.202 22.5271 424.682 22.9938 425.042 23.5938V21.8738H427.822V31.6538C427.822 32.4538 427.668 33.1738 427.362 33.8138C427.068 34.4538 426.655 34.9938 426.122 35.4338C425.588 35.8871 424.948 36.2338 424.202 36.4738C423.455 36.7138 422.635 36.8338 421.742 36.8338C420.608 36.8338 419.642 36.6538 418.842 36.2938C418.042 35.9338 417.342 35.4138 416.742 34.7338L418.462 32.9938C418.848 33.4338 419.328 33.7804 419.902 34.0338C420.475 34.3004 421.088 34.4338 421.742 34.4338C422.128 34.4338 422.495 34.3804 422.842 34.2738C423.188 34.1671 423.495 34.0004 423.762 33.7738C424.028 33.5604 424.235 33.2738 424.382 32.9138C424.542 32.5671 424.622 32.1471 424.622 31.6538V30.6338C424.302 31.2204 423.842 31.6671 423.242 31.9738C422.642 32.2671 421.995 32.4138 421.302 32.4138ZM422.402 29.8738C422.895 29.8738 423.335 29.7404 423.722 29.4738C424.108 29.1938 424.408 28.8404 424.622 28.4138V26.2138C424.408 25.6538 424.082 25.2138 423.642 24.8938C423.202 24.5604 422.735 24.3938 422.242 24.3938C421.895 24.3938 421.575 24.4738 421.282 24.6338C421.002 24.7804 420.755 24.9871 420.542 25.2538C420.342 25.5071 420.182 25.8071 420.062 26.1538C419.955 26.4871 419.902 26.8338 419.902 27.1938C419.902 27.5804 419.962 27.9404 420.082 28.2738C420.215 28.5938 420.395 28.8738 420.622 29.1138C420.848 29.3538 421.108 29.5404 421.402 29.6738C421.708 29.8071 422.042 29.8738 422.402 29.8738ZM435.034 32.5738C434.154 32.5738 433.361 32.4338 432.654 32.1538C431.961 31.8604 431.368 31.4671 430.874 30.9738C430.394 30.4804 430.028 29.9138 429.774 29.2738C429.521 28.6204 429.394 27.9404 429.394 27.2338C429.394 26.4738 429.521 25.7604 429.774 25.0938C430.028 24.4138 430.394 23.8204 430.874 23.3138C431.354 22.8071 431.941 22.4071 432.634 22.1138C433.341 21.8204 434.141 21.6738 435.034 21.6738C435.928 21.6738 436.721 21.8204 437.414 22.1138C438.108 22.4071 438.694 22.8071 439.174 23.3138C439.654 23.8071 440.014 24.3804 440.254 25.0338C440.508 25.6871 440.634 26.3738 440.634 27.0938C440.634 27.2804 440.628 27.4671 440.614 27.6538C440.601 27.8271 440.581 27.9804 440.554 28.1138H432.794C432.848 28.8204 433.101 29.3604 433.554 29.7338C434.021 30.0938 434.548 30.2738 435.134 30.2738C435.601 30.2738 436.048 30.1604 436.474 29.9338C436.914 29.7071 437.208 29.4004 437.354 29.0138L440.074 29.7738C439.661 30.6004 439.021 31.2738 438.154 31.7938C437.288 32.3138 436.248 32.5738 435.034 32.5738ZM437.254 26.1338C437.188 25.4671 436.948 24.9404 436.534 24.5538C436.121 24.1671 435.608 23.9738 434.994 23.9738C434.368 23.9738 433.848 24.1738 433.434 24.5738C433.034 24.9604 432.801 25.4804 432.734 26.1338H437.254ZM452.205 32.3738H449.005V26.4738C449.005 25.7804 448.871 25.2804 448.605 24.9738C448.351 24.6538 448.011 24.4938 447.585 24.4938C447.358 24.4938 447.131 24.5404 446.905 24.6338C446.678 24.7271 446.458 24.8604 446.245 25.0338C446.031 25.1938 445.838 25.3871 445.665 25.6138C445.505 25.8404 445.378 26.0871 445.285 26.3538V32.3738H442.085V21.8738H444.965V23.6338C445.351 23.0071 445.898 22.5271 446.605 22.1938C447.311 21.8471 448.125 21.6738 449.045 21.6738C449.725 21.6738 450.271 21.8004 450.685 22.0538C451.098 22.2938 451.418 22.6138 451.645 23.0138C451.871 23.4004 452.018 23.8271 452.085 24.2938C452.165 24.7604 452.205 25.2138 452.205 25.6538V32.3738ZM453.711 27.1138C453.711 26.3938 453.838 25.7071 454.091 25.0538C454.344 24.3871 454.711 23.8071 455.191 23.3138C455.671 22.8071 456.258 22.4071 456.951 22.1138C457.658 21.8204 458.458 21.6738 459.351 21.6738C460.564 21.6738 461.584 21.9338 462.411 22.4538C463.238 22.9604 463.858 23.6271 464.271 24.4538L461.151 25.3938C460.738 24.7271 460.131 24.3938 459.331 24.3938C458.664 24.3938 458.104 24.6404 457.651 25.1338C457.211 25.6271 456.991 26.2871 456.991 27.1138C456.991 27.5271 457.051 27.9071 457.171 28.2538C457.291 28.5871 457.458 28.8738 457.671 29.1138C457.884 29.3538 458.131 29.5404 458.411 29.6738C458.704 29.8071 459.011 29.8738 459.331 29.8738C459.731 29.8738 460.098 29.7804 460.431 29.5938C460.764 29.3938 461.011 29.1404 461.171 28.8338L464.291 29.7938C463.904 30.6071 463.284 31.2738 462.431 31.7938C461.591 32.3138 460.564 32.5738 459.351 32.5738C458.471 32.5738 457.678 32.4271 456.971 32.1338C456.278 31.8271 455.684 31.4271 455.191 30.9338C454.711 30.4271 454.344 29.8471 454.091 29.1938C453.838 28.5271 453.711 27.8338 453.711 27.1138ZM465.68 33.9538C465.947 34.0471 466.194 34.1138 466.42 34.1538C466.66 34.1938 466.874 34.2138 467.06 34.2138C467.447 34.2138 467.747 34.0804 467.96 33.8138C468.174 33.5471 468.367 33.0671 468.54 32.3738L464.54 21.8738H467.84L470.28 29.6338L472.38 21.8738H475.38L471.38 34.0738C471.1 34.9404 470.6 35.6404 469.88 36.1738C469.16 36.7204 468.307 36.9938 467.32 36.9938C467.054 36.9938 466.78 36.9671 466.5 36.9138C466.234 36.8738 465.96 36.8004 465.68 36.6938V33.9538ZM483.936 32.5138C482.829 32.5138 481.809 32.3338 480.876 31.9738C479.956 31.6004 479.162 31.0938 478.496 30.4538C477.829 29.8004 477.302 29.0338 476.916 28.1538C476.542 27.2738 476.356 26.3138 476.356 25.2738C476.356 24.2471 476.542 23.2938 476.916 22.4138C477.302 21.5338 477.829 20.7738 478.496 20.1338C479.162 19.4938 479.956 18.9938 480.876 18.6338C481.809 18.2604 482.829 18.0738 483.936 18.0738C485.029 18.0738 486.042 18.2604 486.976 18.6338C487.922 18.9938 488.736 19.4938 489.416 20.1338C490.109 20.7738 490.649 21.5338 491.036 22.4138C491.422 23.2938 491.616 24.2471 491.616 25.2738C491.616 26.3138 491.422 27.2738 491.036 28.1538C490.649 29.0338 490.109 29.8004 489.416 30.4538C488.736 31.0938 487.922 31.6004 486.976 31.9738C486.042 32.3338 485.029 32.5138 483.936 32.5138ZM483.956 31.4138C484.849 31.4138 485.682 31.2604 486.456 30.9538C487.229 30.6471 487.902 30.2271 488.476 29.6938C489.049 29.1471 489.496 28.5004 489.816 27.7538C490.149 27.0071 490.316 26.1938 490.316 25.3138C490.316 24.4604 490.156 23.6604 489.836 22.9138C489.516 22.1671 489.069 21.5204 488.496 20.9738C487.936 20.4271 487.269 19.9938 486.496 19.6738C485.722 19.3538 484.876 19.1938 483.956 19.1938C483.036 19.1938 482.189 19.3538 481.416 19.6738C480.642 19.9938 479.976 20.4271 479.416 20.9738C478.856 21.5204 478.416 22.1671 478.096 22.9138C477.789 23.6471 477.636 24.4404 477.636 25.2938C477.636 26.1471 477.789 26.9471 478.096 27.6938C478.416 28.4271 478.856 29.0738 479.416 29.6338C479.976 30.1804 480.642 30.6138 481.416 30.9338C482.189 31.2538 483.036 31.4138 483.956 31.4138ZM480.616 20.8938H484.556C484.969 20.8938 485.349 20.9804 485.696 21.1538C486.056 21.3271 486.362 21.5538 486.616 21.8338C486.869 22.1138 487.062 22.4338 487.196 22.7938C487.342 23.1404 487.416 23.4938 487.416 23.8538C487.416 24.3738 487.282 24.8671 487.016 25.3338C486.749 25.7871 486.402 26.1271 485.976 26.3538L487.956 29.5738H485.456L483.716 26.7738H482.876V29.5738H480.616V20.8938ZM484.336 24.8538C484.589 24.8538 484.796 24.7738 484.956 24.6138C485.116 24.4538 485.196 24.2004 485.196 23.8538C485.196 23.4804 485.102 23.2204 484.916 23.0738C484.729 22.9271 484.522 22.8538 484.296 22.8538H482.876V24.8538H484.336Z" fill="black"/>
<circle cx="490.488" cy="113.848" r="10.1522" fill="#0F6F79"/>
</g>
<defs>
<clipPath id="clip0_15_7">
<rect width="504" height="140" fill="white"/>
</clipPath>
</defs>
</svg>
