<svg id="Layer_2" data-name="Layer 2" xmlns="http://www.w3.org/2000/svg" width="98.036mm" height="14.482mm" viewBox="0 0 277.8973 41.0513"><defs><style>.cls-1{fill:#222222;}.cls-2{fill:#e8e7db;}.cls-3{fill:#1f1e21;}.cls-4{fill:#6aa13a;}.cls-5{fill:#c8a121;}.cls-6{fill:#a4112e;}.cls-7{fill:#588f39;}.cls-8{fill:#577337;}.cls-9{fill:#e9b70f;}.cls-10{fill:#c53827;}.cls-11{fill:#df9d26;}.cls-12{fill:#0976b2;}.cls-13{fill:#7d1934;}.cls-14{fill:#49a5d0;}.cls-15{fill:#cf6722;}.cls-16{fill:#c00028;}.cls-17{fill:#ba0073;}.cls-18{fill:#1b365f;}.cls-19{fill:#c08d23;}.cls-20{fill:#174e7e;}</style></defs><path class="cls-1" d="M71.9451,33.7032c-.3965.1445-.7207.252-1.0088.3594-.2871.1094-.54.1445-.72.2168a17.8271,17.8271,0,0,1-2.8438.6113c-1.08.1074-2.124.18-3.1318.18a12.7717,12.7717,0,0,1-5.0039-.9727,12.1073,12.1073,0,0,1-4.0322-2.5917,12.3951,12.3951,0,0,1-2.6642-3.9239,12.8107,12.8107,0,0,1,0-9.793,11.749,11.749,0,0,1,6.588-6.4434,14.1486,14.1486,0,0,1,5.0039-.8984,21.9319,21.9319,0,0,1,2.6279.1445,15.0732,15.0732,0,0,1,2.3037.3945,8.6857,8.6857,0,0,1,1.3682.4688c.36.18.8643.4316,1.5127.791l-1.1162,2.4492a7.9251,7.9251,0,0,0-.7559-.3965c-.1806-.1074-.36-.18-.5039-.2519a12.5255,12.5255,0,0,0-2.376-.6836,13.9638,13.9638,0,0,0-2.7724-.252,11.2007,11.2007,0,0,0-4.2481.7188,7.8532,7.8532,0,0,0-3.0957,2.3047,8.9954,8.9954,0,0,0-1.7285,2.9511,10.0961,10.0961,0,0,0,.1807,7.381,9.397,9.397,0,0,0,2.1592,3.1308,10.1126,10.1126,0,0,0,3.2763,2.0528,10.951,10.951,0,0,0,4.1045.7558,12.4911,12.4911,0,0,0,1.6914-.1074c.54-.0722,1.26-.2168,2.2324-.3965v-7.92h2.9522Z"/><path class="cls-1" d="M88.2684,34.6036l2.4473-7.0215h9.6124l2.4482,7.0215h3.168l-8.82-24.4454h-3.168l-7.9551,21.961H79.036V10.8437H76.0838v23.76Zm3.3838-9.7207L95.54,14.0117l3.8526,10.8712Z"/><path class="cls-1" d="M128.3721,22.6152a13.3154,13.3154,0,0,1-.8281,4.5724,12.3508,12.3508,0,0,1-2.3761,3.9609,9.2666,9.2666,0,0,1-3.6718,2.6641,13.8849,13.8849,0,0,1-5.1123.791H108.5v-23.76h7.92a12.3357,12.3357,0,0,1,4.7881.9,11.4094,11.4094,0,0,1,3.8164,2.4473,11.5558,11.5558,0,0,1,2.4835,3.709A12.6189,12.6189,0,0,1,128.3721,22.6152Zm-3.0958-.0351a9.39,9.39,0,0,0-.7207-3.6719,9.1418,9.1418,0,0,0-1.9433-2.9531,9.3868,9.3868,0,0,0-2.9522-1.9434,10.3019,10.3019,0,0,0-3.708-.6836h-4.5V32.1192h4.5a12.3851,12.3851,0,0,0,3.8155-.5039A6.2746,6.2746,0,0,0,122.36,29.961a7.9178,7.9178,0,0,0,1.1875-1.5859,10.8923,10.8923,0,0,0,.9366-1.8359,17.7528,17.7528,0,0,0,.5751-1.9786A9.4934,9.4934,0,0,0,125.2763,22.58Z"/><path class="cls-1" d="M145.4,12.4277l-1.3673,2.4473c-.6133-.3594-1.1172-.6113-1.4414-.791a4.5158,4.5158,0,0,0-1.043-.4317,13.9538,13.9538,0,0,0-1.6211-.3613,9.6919,9.6919,0,0,0-1.6562-.1426,5.4757,5.4757,0,0,0-3.3106.9356,2.83,2.83,0,0,0-1.2246,2.4121,2.61,2.61,0,0,0,.252,1.1875,3.2489,3.2489,0,0,0,.8633,1.1172,12.869,12.869,0,0,0,1.8007,1.26c.7559.4668,1.7637,1.0079,2.9512,1.6563a20.37,20.37,0,0,1,3.7441,2.4122A5.1525,5.1525,0,0,1,144.7164,26a6.9009,6.9009,0,0,1,.4669,2.4473,6.0468,6.0468,0,0,1-2.1232,4.8613,8.4726,8.4726,0,0,1-5.6875,1.7637,12.2251,12.2251,0,0,1-4.3925-.793,7.1433,7.1433,0,0,1-1.2969-.6113c-.3945-.252-1.0078-.6114-1.7627-1.1524l1.5107-2.34c.6856.4687,1.19.7929,1.584,1.0078a11.5457,11.5457,0,0,0,1.1524.541,9.1484,9.1484,0,0,0,3.42.6113,5.33,5.33,0,0,0,3.3125-.9355,3.1769,3.1769,0,0,0,1.1875-2.6641,3.6756,3.6756,0,0,0-.3594-1.6914A5.2487,5.2487,0,0,0,139.7125,25.1c-.18-.1074-.6133-.3594-1.2969-.6836-.6484-.3242-1.5469-.8282-2.6641-1.4395a12.9607,12.9607,0,0,1-3.8867-2.9161,5.1221,5.1221,0,0,1-1.1894-3.3125,5.6947,5.6947,0,0,1,.5761-2.5918,5.6285,5.6285,0,0,1,1.584-1.98,8.12,8.12,0,0,1,2.4844-1.2969,11.1622,11.1622,0,0,1,3.2051-.4316,13.1706,13.1706,0,0,1,2.0508.1445,9.6253,9.6253,0,0,1,3.24.9726C144.2125,11.7441,144.7164,12.0312,145.4,12.4277Z"/><path class="cls-1" d="M167.8181,34.6056l-3.168-.002-2.4492-7.02H152.59l-2.4472,7.02h-3.168L155.83,10.16h3.1679Zm-6.5528-9.7207-3.8515-10.8732-3.8887,10.8732Z"/><path class="cls-1" d="M189.1228,34.6056H185.74L179.1873,24.92l-6.625,9.6856h-3.42l8.3164-12.133-7.92-11.6269h3.3847l6.2988,9.1426,6.2286-9.1426h3.3476L180.8435,22.51Z"/><path class="cls-1" d="M205.9862,34.6056h-13.68v-23.76H205.662v2.4824H195.2577v7.92h8.6035v2.4845h-8.6035v8.3887h10.7285Z"/><path class="cls-1" d="M71.9451,33.7032c-.3965.1445-.7207.252-1.0088.3594-.2871.1094-.54.1445-.72.2168a17.8271,17.8271,0,0,1-2.8438.6113c-1.08.1074-2.124.18-3.1318.18a12.7717,12.7717,0,0,1-5.0039-.9727,12.1073,12.1073,0,0,1-4.0322-2.5917,12.3951,12.3951,0,0,1-2.6642-3.9239,12.8107,12.8107,0,0,1,0-9.793,11.749,11.749,0,0,1,6.588-6.4434,14.1486,14.1486,0,0,1,5.0039-.8984,21.9319,21.9319,0,0,1,2.6279.1445,15.0732,15.0732,0,0,1,2.3037.3945,8.6857,8.6857,0,0,1,1.3682.4688c.36.18.8643.4316,1.5127.791l-1.1162,2.4492a7.9251,7.9251,0,0,0-.7559-.3965c-.1806-.1074-.36-.18-.5039-.2519a12.5255,12.5255,0,0,0-2.376-.6836,13.9638,13.9638,0,0,0-2.7724-.252,11.2007,11.2007,0,0,0-4.2481.7188,7.8532,7.8532,0,0,0-3.0957,2.3047,8.9954,8.9954,0,0,0-1.7285,2.9511,10.0961,10.0961,0,0,0,.1807,7.381,9.397,9.397,0,0,0,2.1592,3.1308,10.1126,10.1126,0,0,0,3.2763,2.0528,10.951,10.951,0,0,0,4.1045.7558,12.4911,12.4911,0,0,0,1.6914-.1074c.54-.0722,1.26-.2168,2.2324-.3965v-7.92h2.9522Z"/><path class="cls-1" d="M88.2684,34.6036l2.4473-7.0215h9.6124l2.4482,7.0215h3.168l-8.82-24.4454h-3.168l-7.9551,21.961H79.036V10.8437H76.0838v23.76Zm3.3838-9.7207L95.54,14.0117l3.8526,10.8712Z"/><path class="cls-1" d="M128.3721,22.6152a13.3154,13.3154,0,0,1-.8281,4.5724,12.3508,12.3508,0,0,1-2.3761,3.9609,9.2666,9.2666,0,0,1-3.6718,2.6641,13.8849,13.8849,0,0,1-5.1123.791H108.5v-23.76h7.92a12.3357,12.3357,0,0,1,4.7881.9,11.4094,11.4094,0,0,1,3.8164,2.4473,11.5558,11.5558,0,0,1,2.4835,3.709A12.6189,12.6189,0,0,1,128.3721,22.6152Zm-3.0958-.0351a9.39,9.39,0,0,0-.7207-3.6719,9.1418,9.1418,0,0,0-1.9433-2.9531,9.3868,9.3868,0,0,0-2.9522-1.9434,10.3019,10.3019,0,0,0-3.708-.6836h-4.5V32.1192h4.5a12.3851,12.3851,0,0,0,3.8155-.5039A6.2746,6.2746,0,0,0,122.36,29.961a7.9178,7.9178,0,0,0,1.1875-1.5859,10.8923,10.8923,0,0,0,.9366-1.8359,17.7528,17.7528,0,0,0,.5751-1.9786A9.4934,9.4934,0,0,0,125.2763,22.58Z"/><path class="cls-1" d="M145.4,12.4277l-1.3673,2.4473c-.6133-.3594-1.1172-.6113-1.4414-.791a4.5158,4.5158,0,0,0-1.043-.4317,13.9538,13.9538,0,0,0-1.6211-.3613,9.6919,9.6919,0,0,0-1.6562-.1426,5.4757,5.4757,0,0,0-3.3106.9356,2.83,2.83,0,0,0-1.2246,2.4121,2.61,2.61,0,0,0,.252,1.1875,3.2489,3.2489,0,0,0,.8633,1.1172,12.869,12.869,0,0,0,1.8007,1.26c.7559.4668,1.7637,1.0079,2.9512,1.6563a20.37,20.37,0,0,1,3.7441,2.4122A5.1525,5.1525,0,0,1,144.7164,26a6.9009,6.9009,0,0,1,.4669,2.4473,6.0468,6.0468,0,0,1-2.1232,4.8613,8.4726,8.4726,0,0,1-5.6875,1.7637,12.2251,12.2251,0,0,1-4.3925-.793,7.1433,7.1433,0,0,1-1.2969-.6113c-.3945-.252-1.0078-.6114-1.7627-1.1524l1.5107-2.34c.6856.4687,1.19.7929,1.584,1.0078a11.5457,11.5457,0,0,0,1.1524.541,9.1484,9.1484,0,0,0,3.42.6113,5.33,5.33,0,0,0,3.3125-.9355,3.1769,3.1769,0,0,0,1.1875-2.6641,3.6756,3.6756,0,0,0-.3594-1.6914A5.2487,5.2487,0,0,0,139.7125,25.1c-.18-.1074-.6133-.3594-1.2969-.6836-.6484-.3242-1.5469-.8282-2.6641-1.4395a12.9607,12.9607,0,0,1-3.8867-2.9161,5.1221,5.1221,0,0,1-1.1894-3.3125,5.6947,5.6947,0,0,1,.5761-2.5918,5.6285,5.6285,0,0,1,1.584-1.98,8.12,8.12,0,0,1,2.4844-1.2969,11.1622,11.1622,0,0,1,3.2051-.4316,13.1706,13.1706,0,0,1,2.0508.1445,9.6253,9.6253,0,0,1,3.24.9726C144.2125,11.7441,144.7164,12.0312,145.4,12.4277Z"/><path class="cls-1" d="M167.8181,34.6056l-3.168-.002-2.4492-7.02H152.59l-2.4472,7.02h-3.168L155.83,10.16h3.1679Zm-6.5528-9.7207-3.8515-10.8732-3.8887,10.8732Z"/><path class="cls-1" d="M189.1228,34.6056H185.74L179.1873,24.92l-6.625,9.6856h-3.42l8.3164-12.133-7.92-11.6269h3.3847l6.2988,9.1426,6.2286-9.1426h3.3476L180.8435,22.51Z"/><path class="cls-1" d="M205.9862,34.6056h-13.68v-23.76H205.662v2.4824H195.2577v7.92h8.6035v2.4845h-8.6035v8.3887h10.7285Z"/><path class="cls-2" d="M.7506,6.0651s9.395-3.29,16.9553-3.1949,15.88,2.4674,17.3981,3.4164c-.6643,2.499-1.9929,4.9663-2.0561,7.8449-.1279,5.8194,0,11.9257,0,11.9257s.19,14.14-15.1206,14.0767S2.3955,26.5317,2.3955,26.5317l.0633-13.0645A20.68,20.68,0,0,0,.7506,6.0651Z"/><path class="cls-3" d="M35.8551,6.7436l-.6611-.9082A46.9793,46.9793,0,0,0,17.8458,2.6019,49.4529,49.4529,0,0,0,0,5.9907a14.4848,14.4848,0,0,1,1.4,3.6378,18.0871,18.0871,0,0,1,.65,4.796s.0323,10.3209.0323,11.0622c0,2.8911.5228,15.5646,15.8456,15.5646,15.4365,0,15.9609-12.5908,15.9609-15.5668V14.51a16.3015,16.3015,0,0,1,.4972-4.0724A14.019,14.019,0,0,1,35.8551,6.7436ZM17.8239,39.6294C3.9481,39.6294,3.109,28.0678,3.109,25.4867c0-1.49-.0683-10.9636-.0683-10.9636H32.6021s-.0508,8.3825-.0508,10.9636S31.7637,39.6294,17.8239,39.6294ZM33.39,9.8141a14.4227,14.4227,0,0,0-.6494,4.0958L2.8492,13.904a21.8561,21.8561,0,0,0-.58-4.2442A14.6071,14.6071,0,0,0,1.12,6.46,43.3,43.3,0,0,1,17.69,3.348,45.2737,45.2737,0,0,1,34.5719,6.519,15.92,15.92,0,0,0,33.39,9.8141Z"/><path class="cls-3" d="M9.6408,7.6215c-.4542-.3872-.9308-.1124-1.0444-.2293-.1093-.1126.5754-.7008-.03-1.3073-.543-.5439-1.3988-.14-1.879-.14s-1.3361-.4035-1.8791.14c-.6055.6065.0792,1.1947-.03,1.3073-.1136.1169-.59-.1579-1.0444.2293-.59.5026-.2218,1.5265-.22,1.8424.0022.3034-.2961,1.1917.22,1.7282,1.0921,1.1364,2.0454-.766,2.3193-.6475.28.1212-.0992,1.2633-.1318,1.891a.4165.4165,0,0,0,.0838.2709l.64.8566a.0528.0528,0,0,0,.0845,0l.64-.8566a.4165.4165,0,0,0,.0838-.2709c-.0326-.6277-.4121-1.77-.1318-1.891.2739-.1185,1.2272,1.7839,2.3193.6475.5157-.5365.2175-1.4248.22-1.7282C9.8626,9.148,10.2305,8.1241,9.6408,7.6215Zm-.3987,3.4762c-.9049.5863-1.5791-1.3452-2.1439-1.0293-.4039.226-.03,1.304-.0114,2.1472.0064.2889-.0681.6983-.399.6919H6.6872c-.3309.0064-.4061-.403-.4-.6919.0189-.8432.3925-1.9212-.0115-2.1472-.5647-.3159-1.239,1.6156-2.1439,1.0293-.7178-.465-.3007-1.3192-.3007-1.6338,0-.2981-.4222-1.2172.2543-1.6359a1.0152,1.0152,0,0,1,1.1375.2428c.2743.2872.8592.8109,1.05.5456.1932-.2686-.376-.5533-.7373-.8527C5.18,7.4686,4.609,6.96,5.0918,6.3915c.44-.519,1.2128-.1443,1.5954-.1443s1.1549-.3747,1.5954.1443c.4827.5689-.0882,1.0771-.4445,1.3722-.3612.2994-.93.5841-.7372.8527.1909.2653.7758-.2584,1.05-.5456A1.0151,1.0151,0,0,1,9.2885,7.828c.6765.4187.2543,1.3378.2543,1.6359C9.5428,9.7785,9.96,10.6327,9.2421,11.0977Z"/><path class="cls-3" d="M17.0785,7.6215c-.4542-.3872-.9308-.1124-1.0443-.2293-.1094-.1126.5753-.7008-.03-1.3073-.543-.5439-1.3988-.14-1.879-.14s-1.336-.4035-1.879.14c-.6056.6065.0791,1.1947-.03,1.3073-.1135.1169-.59-.1579-1.0443.2293-.59.5026-.2219,1.5265-.22,1.8424.0021.3034-.2961,1.1917.22,1.7282,1.0922,1.1364,2.0455-.766,2.3193-.6475.28.1212-.0991,1.2633-.1318,1.891a.4176.4176,0,0,0,.0838.2709l.64.8566a.0528.0528,0,0,0,.0845,0l.64-.8566a.4176.4176,0,0,0,.0838-.2709c-.0327-.6277-.4122-1.77-.1319-1.891.2739-.1185,1.2272,1.7839,2.3194.6475.5156-.5365.2174-1.4248.22-1.7282C17.3,9.148,17.6682,8.1241,17.0785,7.6215ZM16.68,11.0977c-.9049.5863-1.5791-1.3452-2.1439-1.0293-.4039.226-.03,1.304-.0114,2.1472.0065.2889-.0681.6983-.3989.6919h-.0007c-.3308.0064-.4061-.403-.4-.6919.0189-.8432.3925-1.9212-.0114-2.1472-.5648-.3159-1.2391,1.6156-2.144,1.0293-.7177-.465-.3007-1.3192-.3007-1.6338,0-.2981-.4221-1.2172.2543-1.6359a1.0152,1.0152,0,0,1,1.1375.2428c.2744.2872.8592.8109,1.05.5456.1933-.2686-.376-.5533-.7373-.8527-.3562-.2951-.9271-.8033-.4444-1.3722.44-.519,1.2128-.1443,1.5954-.1443s1.1549-.3747,1.5954.1443c.4827.5689-.0882,1.0771-.4445,1.3722-.3612.2994-.9305.5841-.7372.8527.1909.2653.7758-.2584,1.05-.5456a1.0151,1.0151,0,0,1,1.1374-.2428c.6765.4187.2544,1.3378.2544,1.6359C16.9806,9.7785,17.3976,10.6327,16.68,11.0977Z"/><path class="cls-3" d="M24.5163,7.6215c-.4543-.3872-.9309-.1124-1.0444-.2293-.1094-.1126.5753-.7008-.03-1.3073-.5431-.5439-1.3989-.14-1.8791-.14s-1.336-.4035-1.879.14c-.6056.6065.0791,1.1947-.03,1.3073-.1135.1169-.59-.1579-1.0443.2293-.59.5026-.2219,1.5265-.22,1.8424.0021.3034-.2961,1.1917.22,1.7282,1.0921,1.1364,2.0454-.766,2.3193-.6475.28.1212-.0992,1.2633-.1319,1.891a.4176.4176,0,0,0,.0838.2709l.64.8566a.0528.0528,0,0,0,.0845,0l.64-.8566a.4176.4176,0,0,0,.0838-.2709c-.0327-.6277-.4122-1.77-.1318-1.891.2738-.1185,1.2271,1.7839,2.3193.6475.5156-.5365.2174-1.4248.22-1.7282C24.7381,9.148,25.106,8.1241,24.5163,7.6215Zm-.3987,3.4762c-.9049.5863-1.5792-1.3452-2.1439-1.0293-.404.226-.03,1.304-.0115,2.1472.0065.2889-.0681.6983-.3989.6919h-.0007c-.3308.0064-.406-.403-.4-.6919.0189-.8432.3925-1.9212-.0114-2.1472-.5648-.3159-1.239,1.6156-2.1439,1.0293-.7178-.465-.3007-1.3192-.3007-1.6338,0-.2981-.4222-1.2172.2543-1.6359a1.0151,1.0151,0,0,1,1.1374.2428c.2744.2872.8593.8109,1.05.5456.1933-.2686-.376-.5533-.7372-.8527-.3563-.2951-.9272-.8033-.4445-1.3722.4405-.519,1.2129-.1443,1.5954-.1443s1.155-.3747,1.5954.1443c.4827.5689-.0882,1.0771-.4444,1.3722-.3613.2994-.9306.5841-.7373.8527.191.2653.7758-.2584,1.05-.5456A1.0152,1.0152,0,0,1,24.164,7.828c.6765.4187.2543,1.3378.2543,1.6359C24.4183,9.7785,24.8353,10.6327,24.1176,11.0977Z"/><path class="cls-3" d="M31.954,7.6215c-.4543-.3872-.9308-.1124-1.0444-.2293-.1094-.1126.5753-.7008-.03-1.3073-.543-.5439-1.3988-.14-1.8791-.14s-1.336-.4035-1.879.14c-.6055.6065.0791,1.1947-.03,1.3073-.1136.1169-.59-.1579-1.0444.2293-.59.5026-.2218,1.5265-.22,1.8424.0022.3034-.2961,1.1917.22,1.7282,1.0921,1.1364,2.0454-.766,2.3193-.6475.28.1212-.0992,1.2633-.1318,1.891a.4165.4165,0,0,0,.0838.2709l.64.8566a.0528.0528,0,0,0,.0845,0l.64-.8566a.4165.4165,0,0,0,.0838-.2709c-.0326-.6277-.4121-1.77-.1318-1.891.2739-.1185,1.2272,1.7839,2.3193.6475.5157-.5365.2174-1.4248.22-1.7282C32.1758,9.148,32.5437,8.1241,31.954,7.6215Zm-.3987,3.4762c-.9049.5863-1.5792-1.3452-2.1439-1.0293-.404.226-.03,1.304-.0115,2.1472.0065.2889-.0681.6983-.3989.6919H29c-.3308.0064-.406-.403-.3995-.6919.0189-.8432.3924-1.9212-.0115-2.1472-.5648-.3159-1.239,1.6156-2.1439,1.0293-.7178-.465-.3007-1.3192-.3007-1.6338,0-.2981-.4222-1.2172.2543-1.6359a1.0151,1.0151,0,0,1,1.1374.2428c.2744.2872.8593.8109,1.05.5456.1933-.2686-.3759-.5533-.7372-.8527-.3562-.2951-.9272-.8033-.4445-1.3722.4405-.519,1.2129-.1443,1.5954-.1443s1.155-.3747,1.5955.1443c.4827.5689-.0883,1.0771-.4445,1.3722-.3613.2994-.93.5841-.7373.8527.191.2653.7759-.2584,1.05-.5456a1.0151,1.0151,0,0,1,1.1374-.2428c.6765.4187.2543,1.3378.2543,1.6359C31.856,9.7785,32.2731,10.6327,31.5553,11.0977Z"/><path class="cls-3" d="M24.7943,30.0315c-2.0753-1.375-2.9532-1.9826-3.3341-2.2228a4.25,4.25,0,0,1-1.5782-1.3682,10.1707,10.1707,0,0,1-.5049-2.27,1.6948,1.6948,0,0,0-.1182-.4121.8157.8157,0,0,0,.3506.0547,4.39,4.39,0,0,0,1.9581-.9873c.8867-.6992,1.3535-1.6632,1.5332-1.6788a.52.52,0,0,1,.3242.0927s1.1124.6222,2.1769,1.36,1.6006,1.1191,2.9239,1.8965c1.0828.637,2.7446,1.5606,3.3094,1.8733a.0523.0523,0,0,0,.0684-.0755c-.4627-.6674-2.0867-2.9991-3.1766-4.4326-1.2832-1.6866-2.9317-3.5812-2.9317-3.5812a11.285,11.285,0,0,0-2.53-2.2793,3.1433,3.1433,0,0,0-1.6162-.58,2.3367,2.3367,0,0,0-1.8038.6426l-1.0987,1.14s-.8232,1.042-1.7149.9795-1.6016-1.2324-2.0049-1.56a3.3377,3.3377,0,0,0-1.4718-.74,2.33,2.33,0,0,0-1.4717.0313,1.774,1.774,0,0,0-.788.6836c-.1133.166-.74.2949-.7667.4355s.3115,0,.5713.2588a4.6135,4.6135,0,0,1,.584,1.001,5.51,5.51,0,0,1,.3067,1.45c.0254.6884-1.047.7763-1.6427.7666a15.9483,15.9483,0,0,1-1.6162-.2071,3.6448,3.6448,0,0,0-1.757.1553,1.874,1.874,0,0,0-1.2724,1.6847,13.9029,13.9029,0,0,0,.4072,3.6427c.1963.8964.3418,1.57.58,2.4511s.5439,1.8859.8281,2.8185.5919,1.8712.8771,2.6739c.2261.6368.797,2.1964,1.0234,2.8142a.0526.0526,0,0,0,.1021-.0164c.0236-.88.098-3.61.1274-4.2587.0371-.7775.0732-3.6857.0986-4.592s.0264-1.3106.27-1.3106.2754.0938.7724.16a4.9247,4.9247,0,0,0,1.4376-.1777c.6221-.1407,1.4424-.3926,1.4424-.3926a9.7268,9.7268,0,0,1-1.457-2.6232,4.48,4.48,0,0,1-.2383-1.9581s.0976.4806.2529,1.04a7.8019,7.8019,0,0,0,.917,2.2382A8.7366,8.7366,0,0,0,15.0782,26.86a8.3424,8.3424,0,0,1,1.7412,1.7179,11.1623,11.1623,0,0,1,.8936,2.9072s.6153,2.4649.9326,3.676c.3194,1.2129.9795,3.8165,1.1866,3.75s-.16-3.4621-.0977-4.3791A5.9015,5.9015,0,0,1,20.31,31.928a1.8913,1.8913,0,0,1,1.9591-1.08,9.79,9.79,0,0,1,3.5372.8311c1.4082.5518,2.9591,1.53,3.089,1.2666C29.0249,32.68,26.87,31.4065,24.7943,30.0315Zm-12.2606-13.85a.4153.4153,0,0,1,.1808-.0295.0142.0142,0,0,1,.0135.0147.2594.2594,0,0,0,.2523.2965c.2221.0121.29-.2253.3025-.2788a.0142.0142,0,0,1,.0134-.0113.7184.7184,0,0,1,.224.04.0144.0144,0,0,1,.0093.0161.5183.5183,0,0,1-.54.4562c-.49-.0437-.4674-.4246-.4633-.4912A.014.014,0,0,1,12.5337,16.1814Zm6.9938,13.268c-.1436.17-1.1045-.5136-2.1388-1.338a17.8668,17.8668,0,0,1-3.2579-3.1407,7.3126,7.3126,0,0,1-1.1973-2.9219c-.125-.6993-.0771-.9483.1162-1.1739s.7383-.0391,1.5929-.5361,1.15-1.3526,1.4463-1.3213.917.793,1.5851,2.3008a26.5474,26.5474,0,0,1,1.291,4.5851A14.0166,14.0166,0,0,1,19.5275,29.4494Z"/><path class="cls-2" d="M.7506,6.0651s9.395-3.29,16.9553-3.1949,15.88,2.4674,17.3981,3.4164c-.6643,2.499-1.9929,4.9663-2.0561,7.8449-.1279,5.8194,0,11.9257,0,11.9257s.19,14.14-15.1206,14.0767S2.3955,26.5317,2.3955,26.5317l.0633-13.0645A20.68,20.68,0,0,0,.7506,6.0651Z"/><path class="cls-3" d="M35.8551,6.7436l-.6611-.9082A46.9793,46.9793,0,0,0,17.8458,2.6019,49.4529,49.4529,0,0,0,0,5.9907a14.4848,14.4848,0,0,1,1.4,3.6378,18.0871,18.0871,0,0,1,.65,4.796s.0323,10.3209.0323,11.0622c0,2.8911.5228,15.5646,15.8456,15.5646,15.4365,0,15.9609-12.5908,15.9609-15.5668V14.51a16.3015,16.3015,0,0,1,.4972-4.0724A14.019,14.019,0,0,1,35.8551,6.7436ZM17.8239,39.6294C3.9481,39.6294,3.109,28.0678,3.109,25.4867c0-1.49-.0683-10.9636-.0683-10.9636H32.6021s-.0508,8.3825-.0508,10.9636S31.7637,39.6294,17.8239,39.6294ZM33.39,9.8141a14.4227,14.4227,0,0,0-.6494,4.0958L2.8492,13.904a21.8561,21.8561,0,0,0-.58-4.2442A14.6071,14.6071,0,0,0,1.12,6.46,43.3,43.3,0,0,1,17.69,3.348,45.2737,45.2737,0,0,1,34.5719,6.519,15.92,15.92,0,0,0,33.39,9.8141Z"/><path class="cls-3" d="M9.6408,7.6215c-.4542-.3872-.9308-.1124-1.0444-.2293-.1093-.1126.5754-.7008-.03-1.3073-.543-.5439-1.3988-.14-1.879-.14s-1.3361-.4035-1.8791.14c-.6055.6065.0792,1.1947-.03,1.3073-.1136.1169-.59-.1579-1.0444.2293-.59.5026-.2218,1.5265-.22,1.8424.0022.3034-.2961,1.1917.22,1.7282,1.0921,1.1364,2.0454-.766,2.3193-.6475.28.1212-.0992,1.2633-.1318,1.891a.4165.4165,0,0,0,.0838.2709l.64.8566a.0528.0528,0,0,0,.0845,0l.64-.8566a.4165.4165,0,0,0,.0838-.2709c-.0326-.6277-.4121-1.77-.1318-1.891.2739-.1185,1.2272,1.7839,2.3193.6475.5157-.5365.2175-1.4248.22-1.7282C9.8626,9.148,10.2305,8.1241,9.6408,7.6215Zm-.3987,3.4762c-.9049.5863-1.5791-1.3452-2.1439-1.0293-.4039.226-.03,1.304-.0114,2.1472.0064.2889-.0681.6983-.399.6919H6.6872c-.3309.0064-.4061-.403-.4-.6919.0189-.8432.3925-1.9212-.0115-2.1472-.5647-.3159-1.239,1.6156-2.1439,1.0293-.7178-.465-.3007-1.3192-.3007-1.6338,0-.2981-.4222-1.2172.2543-1.6359a1.0152,1.0152,0,0,1,1.1375.2428c.2743.2872.8592.8109,1.05.5456.1932-.2686-.376-.5533-.7373-.8527C5.18,7.4686,4.609,6.96,5.0918,6.3915c.44-.519,1.2128-.1443,1.5954-.1443s1.1549-.3747,1.5954.1443c.4827.5689-.0882,1.0771-.4445,1.3722-.3612.2994-.93.5841-.7372.8527.1909.2653.7758-.2584,1.05-.5456A1.0151,1.0151,0,0,1,9.2885,7.828c.6765.4187.2543,1.3378.2543,1.6359C9.5428,9.7785,9.96,10.6327,9.2421,11.0977Z"/><path class="cls-3" d="M17.0785,7.6215c-.4542-.3872-.9308-.1124-1.0443-.2293-.1094-.1126.5753-.7008-.03-1.3073-.543-.5439-1.3988-.14-1.879-.14s-1.336-.4035-1.879.14c-.6056.6065.0791,1.1947-.03,1.3073-.1135.1169-.59-.1579-1.0443.2293-.59.5026-.2219,1.5265-.22,1.8424.0021.3034-.2961,1.1917.22,1.7282,1.0922,1.1364,2.0455-.766,2.3193-.6475.28.1212-.0991,1.2633-.1318,1.891a.4176.4176,0,0,0,.0838.2709l.64.8566a.0528.0528,0,0,0,.0845,0l.64-.8566a.4176.4176,0,0,0,.0838-.2709c-.0327-.6277-.4122-1.77-.1319-1.891.2739-.1185,1.2272,1.7839,2.3194.6475.5156-.5365.2174-1.4248.22-1.7282C17.3,9.148,17.6682,8.1241,17.0785,7.6215ZM16.68,11.0977c-.9049.5863-1.5791-1.3452-2.1439-1.0293-.4039.226-.03,1.304-.0114,2.1472.0065.2889-.0681.6983-.3989.6919h-.0007c-.3308.0064-.4061-.403-.4-.6919.0189-.8432.3925-1.9212-.0114-2.1472-.5648-.3159-1.2391,1.6156-2.144,1.0293-.7177-.465-.3007-1.3192-.3007-1.6338,0-.2981-.4221-1.2172.2543-1.6359a1.0152,1.0152,0,0,1,1.1375.2428c.2744.2872.8592.8109,1.05.5456.1933-.2686-.376-.5533-.7373-.8527-.3562-.2951-.9271-.8033-.4444-1.3722.44-.519,1.2128-.1443,1.5954-.1443s1.1549-.3747,1.5954.1443c.4827.5689-.0882,1.0771-.4445,1.3722-.3612.2994-.9305.5841-.7372.8527.1909.2653.7758-.2584,1.05-.5456a1.0151,1.0151,0,0,1,1.1374-.2428c.6765.4187.2544,1.3378.2544,1.6359C16.9806,9.7785,17.3976,10.6327,16.68,11.0977Z"/><path class="cls-3" d="M24.5163,7.6215c-.4543-.3872-.9309-.1124-1.0444-.2293-.1094-.1126.5753-.7008-.03-1.3073-.5431-.5439-1.3989-.14-1.8791-.14s-1.336-.4035-1.879.14c-.6056.6065.0791,1.1947-.03,1.3073-.1135.1169-.59-.1579-1.0443.2293-.59.5026-.2219,1.5265-.22,1.8424.0021.3034-.2961,1.1917.22,1.7282,1.0921,1.1364,2.0454-.766,2.3193-.6475.28.1212-.0992,1.2633-.1319,1.891a.4176.4176,0,0,0,.0838.2709l.64.8566a.0528.0528,0,0,0,.0845,0l.64-.8566a.4176.4176,0,0,0,.0838-.2709c-.0327-.6277-.4122-1.77-.1318-1.891.2738-.1185,1.2271,1.7839,2.3193.6475.5156-.5365.2174-1.4248.22-1.7282C24.7381,9.148,25.106,8.1241,24.5163,7.6215Zm-.3987,3.4762c-.9049.5863-1.5792-1.3452-2.1439-1.0293-.404.226-.03,1.304-.0115,2.1472.0065.2889-.0681.6983-.3989.6919h-.0007c-.3308.0064-.406-.403-.4-.6919.0189-.8432.3925-1.9212-.0114-2.1472-.5648-.3159-1.239,1.6156-2.1439,1.0293-.7178-.465-.3007-1.3192-.3007-1.6338,0-.2981-.4222-1.2172.2543-1.6359a1.0151,1.0151,0,0,1,1.1374.2428c.2744.2872.8593.8109,1.05.5456.1933-.2686-.376-.5533-.7372-.8527-.3563-.2951-.9272-.8033-.4445-1.3722.4405-.519,1.2129-.1443,1.5954-.1443s1.155-.3747,1.5954.1443c.4827.5689-.0882,1.0771-.4444,1.3722-.3613.2994-.9306.5841-.7373.8527.191.2653.7758-.2584,1.05-.5456A1.0152,1.0152,0,0,1,24.164,7.828c.6765.4187.2543,1.3378.2543,1.6359C24.4183,9.7785,24.8353,10.6327,24.1176,11.0977Z"/><path class="cls-3" d="M31.954,7.6215c-.4543-.3872-.9308-.1124-1.0444-.2293-.1094-.1126.5753-.7008-.03-1.3073-.543-.5439-1.3988-.14-1.8791-.14s-1.336-.4035-1.879.14c-.6055.6065.0791,1.1947-.03,1.3073-.1136.1169-.59-.1579-1.0444.2293-.59.5026-.2218,1.5265-.22,1.8424.0022.3034-.2961,1.1917.22,1.7282,1.0921,1.1364,2.0454-.766,2.3193-.6475.28.1212-.0992,1.2633-.1318,1.891a.4165.4165,0,0,0,.0838.2709l.64.8566a.0528.0528,0,0,0,.0845,0l.64-.8566a.4165.4165,0,0,0,.0838-.2709c-.0326-.6277-.4121-1.77-.1318-1.891.2739-.1185,1.2272,1.7839,2.3193.6475.5157-.5365.2174-1.4248.22-1.7282C32.1758,9.148,32.5437,8.1241,31.954,7.6215Zm-.3987,3.4762c-.9049.5863-1.5792-1.3452-2.1439-1.0293-.404.226-.03,1.304-.0115,2.1472.0065.2889-.0681.6983-.3989.6919H29c-.3308.0064-.406-.403-.3995-.6919.0189-.8432.3924-1.9212-.0115-2.1472-.5648-.3159-1.239,1.6156-2.1439,1.0293-.7178-.465-.3007-1.3192-.3007-1.6338,0-.2981-.4222-1.2172.2543-1.6359a1.0151,1.0151,0,0,1,1.1374.2428c.2744.2872.8593.8109,1.05.5456.1933-.2686-.3759-.5533-.7372-.8527-.3562-.2951-.9272-.8033-.4445-1.3722.4405-.519,1.2129-.1443,1.5954-.1443s1.155-.3747,1.5955.1443c.4827.5689-.0883,1.0771-.4445,1.3722-.3613.2994-.93.5841-.7373.8527.191.2653.7759-.2584,1.05-.5456a1.0151,1.0151,0,0,1,1.1374-.2428c.6765.4187.2543,1.3378.2543,1.6359C31.856,9.7785,32.2731,10.6327,31.5553,11.0977Z"/><path class="cls-3" d="M24.7943,30.0315c-2.0753-1.375-2.9532-1.9826-3.3341-2.2228a4.25,4.25,0,0,1-1.5782-1.3682,10.1707,10.1707,0,0,1-.5049-2.27,1.6948,1.6948,0,0,0-.1182-.4121.8157.8157,0,0,0,.3506.0547,4.39,4.39,0,0,0,1.9581-.9873c.8867-.6992,1.3535-1.6632,1.5332-1.6788a.52.52,0,0,1,.3242.0927s1.1124.6222,2.1769,1.36,1.6006,1.1191,2.9239,1.8965c1.0828.637,2.7446,1.5606,3.3094,1.8733a.0523.0523,0,0,0,.0684-.0755c-.4627-.6674-2.0867-2.9991-3.1766-4.4326-1.2832-1.6866-2.9317-3.5812-2.9317-3.5812a11.285,11.285,0,0,0-2.53-2.2793,3.1433,3.1433,0,0,0-1.6162-.58,2.3367,2.3367,0,0,0-1.8038.6426l-1.0987,1.14s-.8232,1.042-1.7149.9795-1.6016-1.2324-2.0049-1.56a3.3377,3.3377,0,0,0-1.4718-.74,2.33,2.33,0,0,0-1.4717.0313,1.774,1.774,0,0,0-.788.6836c-.1133.166-.74.2949-.7667.4355s.3115,0,.5713.2588a4.6135,4.6135,0,0,1,.584,1.001,5.51,5.51,0,0,1,.3067,1.45c.0254.6884-1.047.7763-1.6427.7666a15.9483,15.9483,0,0,1-1.6162-.2071,3.6448,3.6448,0,0,0-1.757.1553,1.874,1.874,0,0,0-1.2724,1.6847,13.9029,13.9029,0,0,0,.4072,3.6427c.1963.8964.3418,1.57.58,2.4511s.5439,1.8859.8281,2.8185.5919,1.8712.8771,2.6739c.2261.6368.797,2.1964,1.0234,2.8142a.0526.0526,0,0,0,.1021-.0164c.0236-.88.098-3.61.1274-4.2587.0371-.7775.0732-3.6857.0986-4.592s.0264-1.3106.27-1.3106.2754.0938.7724.16a4.9247,4.9247,0,0,0,1.4376-.1777c.6221-.1407,1.4424-.3926,1.4424-.3926a9.7268,9.7268,0,0,1-1.457-2.6232,4.48,4.48,0,0,1-.2383-1.9581s.0976.4806.2529,1.04a7.8019,7.8019,0,0,0,.917,2.2382A8.7366,8.7366,0,0,0,15.0782,26.86a8.3424,8.3424,0,0,1,1.7412,1.7179,11.1623,11.1623,0,0,1,.8936,2.9072s.6153,2.4649.9326,3.676c.3194,1.2129.9795,3.8165,1.1866,3.75s-.16-3.4621-.0977-4.3791A5.9015,5.9015,0,0,1,20.31,31.928a1.8913,1.8913,0,0,1,1.9591-1.08,9.79,9.79,0,0,1,3.5372.8311c1.4082.5518,2.9591,1.53,3.089,1.2666C29.0249,32.68,26.87,31.4065,24.7943,30.0315Zm-12.2606-13.85a.4153.4153,0,0,1,.1808-.0295.0142.0142,0,0,1,.0135.0147.2594.2594,0,0,0,.2523.2965c.2221.0121.29-.2253.3025-.2788a.0142.0142,0,0,1,.0134-.0113.7184.7184,0,0,1,.224.04.0144.0144,0,0,1,.0093.0161.5183.5183,0,0,1-.54.4562c-.49-.0437-.4674-.4246-.4633-.4912A.014.014,0,0,1,12.5337,16.1814Zm6.9938,13.268c-.1436.17-1.1045-.5136-2.1388-1.338a17.8668,17.8668,0,0,1-3.2579-3.1407,7.3126,7.3126,0,0,1-1.1973-2.9219c-.125-.6993-.0771-.9483.1162-1.1739s.7383-.0391,1.5929-.5361,1.15-1.3526,1.4463-1.3213.917.793,1.5851,2.3008a26.5474,26.5474,0,0,1,1.291,4.5851A14.0166,14.0166,0,0,1,19.5275,29.4494Z"/><path class="cls-4" d="M240.4564,16.5287a10.2575,10.2575,0,0,1,1.6146-2.0773l-5.2959-5.8073a18.1333,18.1333,0,0,0-3.3618,4.3762l7.0431,3.5084"/><path class="cls-5" d="M253.4392,12.426a10.1594,10.1594,0,0,1,2.2214,1.3913l5.31-5.7976a18.0763,18.0763,0,0,0-4.7064-2.9371l-2.8253,7.3434"/><path class="cls-6" d="M265.6022,14.1724l-7.04,3.509a10.0631,10.0631,0,0,1,.7054,2.487l7.83-.7388a17.8366,17.8366,0,0,0-1.4959-5.2572"/><path class="cls-7" d="M258.0579,16.664l7.0385-3.5086a18.0874,18.0874,0,0,0-3.29-4.3664l-5.31,5.7968a10.2143,10.2143,0,0,1,1.5616,2.0782"/><path class="cls-8" d="M239.0571,21.6657c0-.1579.005-.3158.0127-.4736l-7.8324-.7c-.0246.3875-.0392.7793-.0392,1.174a18.0537,18.0537,0,0,0,.5327,4.3564l7.5647-2.1692a10.1921,10.1921,0,0,1-.2385-2.1872"/><path class="cls-9" d="M257.0726,28.1036a10.2781,10.2781,0,0,1-1.91,1.7971l4.1342,6.6948a18.1471,18.1471,0,0,0,4.05-3.76l-6.2743-4.7315"/><path class="cls-10" d="M259.3771,21.6657a10.0752,10.0752,0,0,1-.2331,2.1617L266.7079,26a17.974,17.974,0,0,0,.5288-4.3343q0-.555-.036-1.1059l-7.8307.74c.0046.1228.0071.2443.0071.3659"/><path class="cls-11" d="M241.489,28.2535,235.23,33.0113a18.1562,18.1562,0,0,0,4.0875,3.7032l4.1346-6.6885a10.2936,10.2936,0,0,1-1.9629-1.7725"/><path class="cls-12" d="M239.1843,20.0624a10.01,10.01,0,0,1,.75-2.523l-7.0364-3.5057a17.8758,17.8758,0,0,0-1.5528,5.3254l7.8389.7033"/><path class="cls-13" d="M258.3356,37.2011l-4.13-6.6865a10.0763,10.0763,0,0,1-2.41.98l1.4576,7.7348a17.8974,17.8974,0,0,0,5.0818-2.0281"/><path class="cls-14" d="M258.843,24.9228a10.1532,10.1532,0,0,1-1.0992,2.2637l6.2792,4.7364a17.9533,17.9533,0,0,0,2.3781-4.8283l-7.5581-2.1718"/><path class="cls-15" d="M250.6827,31.72a10.0077,10.0077,0,0,1-2.6482.0367l-1.4557,7.7347a18.084,18.084,0,0,0,5.56-.0434l-1.4559-7.728"/><path class="cls-16" d="M249.8671,11.5264a10.0826,10.0826,0,0,1,2.5138.4857L255.2058,4.67a17.9079,17.9079,0,0,0-5.3387-1.01v7.8665"/><path class="cls-17" d="M246.9155,31.5634a10.09,10.09,0,0,1-2.4942-.9435l-4.1376,6.6914A17.93,17.93,0,0,0,245.46,39.29l1.4553-7.7263"/><path class="cls-18" d="M246.1635,11.9756a10.0914,10.0914,0,0,1,2.5672-.4567V3.6537a17.9533,17.9533,0,0,0-5.4113.9856l2.8441,7.3363"/><path class="cls-19" d="M240.8005,27.35a10.0992,10.0992,0,0,1-1.1984-2.4031l-7.5593,2.17a17.9583,17.9583,0,0,0,2.4967,4.99l6.261-4.7573"/><path class="cls-20" d="M242.9226,13.6975a10.1447,10.1447,0,0,1,2.1786-1.3187l-2.8427-7.3325a18.0089,18.0089,0,0,0-4.6358,2.8391l5.3,5.8121"/><path class="cls-3" d="M261.1133,12.6728c.0939.1906,1.2148-.5166,2.2326-.9155a7.08,7.08,0,0,1,2.5566-.6006,1.3669,1.3669,0,0,1,1.4159.7806,4.266,4.266,0,0,1,.4158,1.8819c.0452.6627-.22,3.1163-.0706,3.165a12.6409,12.6409,0,0,0,.8576-2.7105c.2294-.8753.6741-2.6568.6741-2.6568a8.0691,8.0691,0,0,1,.6458-2.1013A6.0329,6.0329,0,0,1,271.1,8.274a6.3147,6.3147,0,0,0,1.3991-1.5953,5.64,5.64,0,0,0,.6628-1.6177c.1122-.4045.1827-.7518.1827-.7518a3.2374,3.2374,0,0,1-.1722,1.4152,7.0305,7.0305,0,0,1-1.0531,1.896s.5929.1821,1.0426.2838a3.5591,3.5591,0,0,0,1.039.1284c.3592-.048.3818-.1158.5582-.1158s.1758.2922.1949.9473.0445,2.757.0713,3.3189c.0212.4689.075,2.442.0921,3.078a.038.038,0,0,0,.0737.0119c.1637-.4466.5763-1.5738.74-2.034.2061-.58.4277-1.2585.6338-1.9326s.4263-1.4.5986-2.0371.2774-1.1237.4193-1.7716a10.05,10.05,0,0,0,.2943-2.6328,1.3544,1.3544,0,0,0-.92-1.2176,2.6335,2.6335,0,0,0-1.27-.1123,11.5241,11.5241,0,0,1-1.1681.15c-.4306.007-1.2056-.0565-1.1873-.5541a3.9829,3.9829,0,0,1,.2217-1.0482,3.3357,3.3357,0,0,1,.4221-.7235c.1877-.1871.4312-.0861.4129-.1871S273.916.977,273.8341.857a1.2823,1.2823,0,0,0-.57-.4941A1.6832,1.6832,0,0,0,272.2008.34a2.412,2.412,0,0,0-1.0637.535c-.2915.2372-.8054,1.0828-1.4491,1.1279s-1.2395-.7079-1.2395-.7079l-.7941-.8237a1.6889,1.6889,0,0,0-1.3037-.4645,2.2724,2.2724,0,0,0-1.1682.4193,8.1557,8.1557,0,0,0-1.8288,1.6475s-1.1915,1.3693-2.119,2.5883c-.7877,1.0361-1.9615,2.7214-2.2959,3.2037a.0378.0378,0,0,0,.0495.0546c.4082-.226,1.6093-.8936,2.3919-1.3539.9564-.5619,1.3432-.8372,2.1132-1.3708s1.5734-.9833,1.5734-.9833a.376.376,0,0,1,.2343-.067c.13.0113.4673.708,1.1082,1.2134a3.1735,3.1735,0,0,0,1.4152.7136.5884.5884,0,0,0,.2534-.04,1.2257,1.2257,0,0,0-.0854.2979,7.351,7.351,0,0,1-.3649,1.64,3.0727,3.0727,0,0,1-1.1407.9889c-.2753.1736-.91.6127-2.41,1.6065S261.0194,12.4808,261.1133,12.6728ZM272.9443.5651c.0029.0481.0194.3234-.3349.355a.3745.3745,0,0,1-.39-.33.01.01,0,0,1,.0067-.0117A.5176.5176,0,0,1,272.3876.55a.01.01,0,0,1,.01.0081c.0091.0387.0582.21.2187.2015a.1873.1873,0,0,0,.1823-.2143.01.01,0,0,1,.01-.0106.3.3,0,0,1,.1307.0213ZM268.29,7.5829a19.1829,19.1829,0,0,1,.9331-3.3139c.4828-1.09.9325-1.64,1.1456-1.663s.427.5958,1.0454.9551,1.0107.2251,1.1512.3875.1744.343.084.8484a5.2849,5.2849,0,0,1-.8654,2.1119,12.9143,12.9143,0,0,1-2.3547,2.27c-.7475.5958-1.442,1.09-1.5458.967A10.1276,10.1276,0,0,1,268.29,7.5829Z"/><path class="cls-4" d="M240.4564,16.5287a10.2575,10.2575,0,0,1,1.6146-2.0773l-5.2959-5.8073a18.1333,18.1333,0,0,0-3.3618,4.3762l7.0431,3.5084"/><path class="cls-5" d="M253.4392,12.426a10.1594,10.1594,0,0,1,2.2214,1.3913l5.31-5.7976a18.0763,18.0763,0,0,0-4.7064-2.9371l-2.8253,7.3434"/><path class="cls-6" d="M265.6022,14.1724l-7.04,3.509a10.0631,10.0631,0,0,1,.7054,2.487l7.83-.7388a17.8366,17.8366,0,0,0-1.4959-5.2572"/><path class="cls-7" d="M258.0579,16.664l7.0385-3.5086a18.0874,18.0874,0,0,0-3.29-4.3664l-5.31,5.7968a10.2143,10.2143,0,0,1,1.5616,2.0782"/><path class="cls-8" d="M239.0571,21.6657c0-.1579.005-.3158.0127-.4736l-7.8324-.7c-.0246.3875-.0392.7793-.0392,1.174a18.0537,18.0537,0,0,0,.5327,4.3564l7.5647-2.1692a10.1921,10.1921,0,0,1-.2385-2.1872"/><path class="cls-9" d="M257.0726,28.1036a10.2781,10.2781,0,0,1-1.91,1.7971l4.1342,6.6948a18.1471,18.1471,0,0,0,4.05-3.76l-6.2743-4.7315"/><path class="cls-10" d="M259.3771,21.6657a10.0752,10.0752,0,0,1-.2331,2.1617L266.7079,26a17.974,17.974,0,0,0,.5288-4.3343q0-.555-.036-1.1059l-7.8307.74c.0046.1228.0071.2443.0071.3659"/><path class="cls-11" d="M241.489,28.2535,235.23,33.0113a18.1562,18.1562,0,0,0,4.0875,3.7032l4.1346-6.6885a10.2936,10.2936,0,0,1-1.9629-1.7725"/><path class="cls-12" d="M239.1843,20.0624a10.01,10.01,0,0,1,.75-2.523l-7.0364-3.5057a17.8758,17.8758,0,0,0-1.5528,5.3254l7.8389.7033"/><path class="cls-13" d="M258.3356,37.2011l-4.13-6.6865a10.0763,10.0763,0,0,1-2.41.98l1.4576,7.7348a17.8974,17.8974,0,0,0,5.0818-2.0281"/><path class="cls-14" d="M258.843,24.9228a10.1532,10.1532,0,0,1-1.0992,2.2637l6.2792,4.7364a17.9533,17.9533,0,0,0,2.3781-4.8283l-7.5581-2.1718"/><path class="cls-15" d="M250.6827,31.72a10.0077,10.0077,0,0,1-2.6482.0367l-1.4557,7.7347a18.084,18.084,0,0,0,5.56-.0434l-1.4559-7.728"/><path class="cls-16" d="M249.8671,11.5264a10.0826,10.0826,0,0,1,2.5138.4857L255.2058,4.67a17.9079,17.9079,0,0,0-5.3387-1.01v7.8665"/><path class="cls-17" d="M246.9155,31.5634a10.09,10.09,0,0,1-2.4942-.9435l-4.1376,6.6914A17.93,17.93,0,0,0,245.46,39.29l1.4553-7.7263"/><path class="cls-18" d="M246.1635,11.9756a10.0914,10.0914,0,0,1,2.5672-.4567V3.6537a17.9533,17.9533,0,0,0-5.4113.9856l2.8441,7.3363"/><path class="cls-19" d="M240.8005,27.35a10.0992,10.0992,0,0,1-1.1984-2.4031l-7.5593,2.17a17.9583,17.9583,0,0,0,2.4967,4.99l6.261-4.7573"/><path class="cls-20" d="M242.9226,13.6975a10.1447,10.1447,0,0,1,2.1786-1.3187l-2.8427-7.3325a18.0089,18.0089,0,0,0-4.6358,2.8391l5.3,5.8121"/><path class="cls-3" d="M261.1133,12.6728c.0939.1906,1.2148-.5166,2.2326-.9155a7.08,7.08,0,0,1,2.5566-.6006,1.3669,1.3669,0,0,1,1.4159.7806,4.266,4.266,0,0,1,.4158,1.8819c.0452.6627-.22,3.1163-.0706,3.165a12.6409,12.6409,0,0,0,.8576-2.7105c.2294-.8753.6741-2.6568.6741-2.6568a8.0691,8.0691,0,0,1,.6458-2.1013A6.0329,6.0329,0,0,1,271.1,8.274a6.3147,6.3147,0,0,0,1.3991-1.5953,5.64,5.64,0,0,0,.6628-1.6177c.1122-.4045.1827-.7518.1827-.7518a3.2374,3.2374,0,0,1-.1722,1.4152,7.0305,7.0305,0,0,1-1.0531,1.896s.5929.1821,1.0426.2838a3.5591,3.5591,0,0,0,1.039.1284c.3592-.048.3818-.1158.5582-.1158s.1758.2922.1949.9473.0445,2.757.0713,3.3189c.0212.4689.075,2.442.0921,3.078a.038.038,0,0,0,.0737.0119c.1637-.4466.5763-1.5738.74-2.034.2061-.58.4277-1.2585.6338-1.9326s.4263-1.4.5986-2.0371.2774-1.1237.4193-1.7716a10.05,10.05,0,0,0,.2943-2.6328,1.3544,1.3544,0,0,0-.92-1.2176,2.6335,2.6335,0,0,0-1.27-.1123,11.5241,11.5241,0,0,1-1.1681.15c-.4306.007-1.2056-.0565-1.1873-.5541a3.9829,3.9829,0,0,1,.2217-1.0482,3.3357,3.3357,0,0,1,.4221-.7235c.1877-.1871.4312-.0861.4129-.1871S273.916.977,273.8341.857a1.2823,1.2823,0,0,0-.57-.4941A1.6832,1.6832,0,0,0,272.2008.34a2.412,2.412,0,0,0-1.0637.535c-.2915.2372-.8054,1.0828-1.4491,1.1279s-1.2395-.7079-1.2395-.7079l-.7941-.8237a1.6889,1.6889,0,0,0-1.3037-.4645,2.2724,2.2724,0,0,0-1.1682.4193,8.1557,8.1557,0,0,0-1.8288,1.6475s-1.1915,1.3693-2.119,2.5883c-.7877,1.0361-1.9615,2.7214-2.2959,3.2037a.0378.0378,0,0,0,.0495.0546c.4082-.226,1.6093-.8936,2.3919-1.3539.9564-.5619,1.3432-.8372,2.1132-1.3708s1.5734-.9833,1.5734-.9833a.376.376,0,0,1,.2343-.067c.13.0113.4673.708,1.1082,1.2134a3.1735,3.1735,0,0,0,1.4152.7136.5884.5884,0,0,0,.2534-.04,1.2257,1.2257,0,0,0-.0854.2979,7.351,7.351,0,0,1-.3649,1.64,3.0727,3.0727,0,0,1-1.1407.9889c-.2753.1736-.91.6127-2.41,1.6065S261.0194,12.4808,261.1133,12.6728ZM272.9443.5651c.0029.0481.0194.3234-.3349.355a.3745.3745,0,0,1-.39-.33.01.01,0,0,1,.0067-.0117A.5176.5176,0,0,1,272.3876.55a.01.01,0,0,1,.01.0081c.0091.0387.0582.21.2187.2015a.1873.1873,0,0,0,.1823-.2143.01.01,0,0,1,.01-.0106.3.3,0,0,1,.1307.0213ZM268.29,7.5829a19.1829,19.1829,0,0,1,.9331-3.3139c.4828-1.09.9325-1.64,1.1456-1.663s.427.5958,1.0454.9551,1.0107.2251,1.1512.3875.1744.343.084.8484a5.2849,5.2849,0,0,1-.8654,2.1119,12.9143,12.9143,0,0,1-2.3547,2.27c-.7475.5958-1.442,1.09-1.5458.967A10.1276,10.1276,0,0,1,268.29,7.5829Z"/></svg>