<svg width="1920" height="1080" xmlns="http://www.w3.org/2000/svg">
  <defs>
    <linearGradient id="grad3" x1="0%" y1="0%" x2="100%" y2="100%">
      <stop offset="0%" style="stop-color:#FF7F50;stop-opacity:1" />
      <stop offset="30%" style="stop-color:#FFD700;stop-opacity:1" />
      <stop offset="70%" style="stop-color:#FF6347;stop-opacity:1" />
      <stop offset="100%" style="stop-color:#DC143C;stop-opacity:1" />
    </linearGradient>
  </defs>
  <rect width="100%" height="100%" fill="url(#grad3)"/>
  <circle cx="200" cy="200" r="60" fill="#FFFFE0" opacity="0.7"/>
  <polygon points="0,500 200,300 500,400 800,250 1100,350 1400,200 1700,300 1920,250 1920,1080 0,1080" fill="#8B4513"/>
  <polygon points="50,600 350,400 650,500 950,350 1250,450 1550,300 1850,400 1920,350 1920,1080 0,1080" fill="#A0522D" opacity="0.9"/>
  <rect x="300" y="150" width="8" height="150" fill="#654321"/>
  <ellipse cx="304" cy="130" rx="25" ry="20" fill="#FF8C00"/>
  <rect x="1200" y="100" width="12" height="200" fill="#654321"/>
  <ellipse cx="1206" cy="80" rx="35" ry="25" fill="#FF4500"/>
  <text x="960" y="540" font-family="Arial, sans-serif" font-size="48" fill="white" text-anchor="middle" opacity="0.3">Nature Scene 3</text>
</svg>