<?xml version="1.0" encoding="utf-8"?>
<!-- Generator: Adobe Illustrator 28.3.0, SVG Export Plug-In . SVG Version: 6.00 Build 0)  -->
<svg version="1.1" id="Layer_1" xmlns="http://www.w3.org/2000/svg" xmlns:xlink="http://www.w3.org/1999/xlink" x="0px" y="0px"
	 viewBox="0 0 334 90" style="enable-background:new 0 0 334 90;" xml:space="preserve">
<style type="text/css">
	.st0{fill:#AA002F;}
	.st1{fill:#FFC800;}
</style>
<g>
	<g>
		<rect class="st0" width="90" height="90"/>
		<g>
			<g>
				<polygon class="st1" points="76.06,45.77 50.22,45.77 50.23,43.52 76.06,43.52 				"/>
				<path class="st1" d="M63.15,27.21c0.07,0,0.21,0.16,0.21,0.16c2.25,2.02,4.45,6.18,4.66,8.85c0.04,0.56-0.69,0.7-1.08,1.42
					c-0.51,0.93-0.14,2.1,0.81,2.59c0.14,0.08,0.27,0.13,0.44,0.17c0.17,0.04,0.31,0.06,0.47,0.06c1.06,0,1.92-0.86,1.92-1.92
					c0-0.81-0.67-1.32-0.36-1.8c1.44-2.2,4-4.41,10.33-6.94c0.07-0.03-4.52,12.27-4.52,12.27H50.23c0,0-4.59-12.3-4.52-12.27
					c6.33,2.53,8.89,4.74,10.33,6.94c0.31,0.47-0.36,0.9-0.36,1.8c0,1.06,0.86,1.92,1.92,1.92c0.16,0,0.3-0.02,0.47-0.06
					c0.17-0.04,0.3-0.09,0.44-0.17c0.94-0.49,1.3-1.65,0.81-2.59c-0.38-0.72-1.12-0.86-1.08-1.42c0.2-2.67,2.42-6.84,4.66-8.85
					C62.92,27.36,63.09,27.21,63.15,27.21z"/>
			</g>
			<g>
				<path class="st1" d="M75.35,50.06c-0.9-0.32-7.32-1.75-9.96,2.66c-1.19,1.98,2.13,4.5,2.13,6.9c0,2.26-1.66,4.52-4.4,4.52
					c-2.74,0-4.4-2.26-4.4-4.52c0-2.41,3.32-4.92,2.13-6.9c-2.64-4.41-9.06-2.97-9.96-2.66c-0.89,0.31-6.91,2.35-5.92,12.14
					c1.08,10.73,18.15,21.24,18.15,21.24S80.2,72.93,81.28,62.2C82.26,52.41,76.24,50.37,75.35,50.06z"/>
			</g>
		</g>
	</g>
	<g>
		<g>
			<path d="M131.96,7.5h-4.93c-0.49,0.04-0.81,0.36-0.81,0.8v11.35h-11.27V8.3c0-0.47-0.31-0.8-0.73-0.8h-4.94
				c-0.46,0.04-0.77,0.36-0.77,0.8v28.35c0,0.48,0.36,0.85,0.83,0.85h4.77c0.48,0,0.84-0.37,0.84-0.85V25.03h11.27v11.62
				c0,0.48,0.38,0.85,0.87,0.85h4.77c0.48,0,0.83-0.37,0.83-0.85V8.3C132.7,7.91,132.42,7.5,131.96,7.5z"/>
			<path d="M203.75,32.04h-11.39V8.3c0-0.47-0.31-0.8-0.74-0.8h-4.96c-0.45,0-0.74,0.32-0.74,0.8v28.35c0,0.48,0.36,0.85,0.83,0.85
				h17c0.51,0,0.88-0.36,0.88-0.85v-3.76C204.63,32.4,204.26,32.04,203.75,32.04z"/>
			<path d="M178.09,32.04H166.7V8.3c0-0.4-0.25-0.8-0.74-0.8h-4.97c-0.45,0-0.74,0.32-0.74,0.8v28.35c0,0.48,0.36,0.85,0.84,0.85h17
				c0.51,0,0.87-0.36,0.87-0.85v-3.76C178.96,32.4,178.6,32.04,178.09,32.04z"/>
			<path d="M148.94,7.5h-4.96c-0.45,0-0.74,0.32-0.74,0.8l0.02,28.35c0,0.48,0.36,0.85,0.83,0.85h4.75c0.48,0,0.84-0.37,0.84-0.85
				L149.7,8.3C149.7,7.9,149.44,7.5,148.94,7.5z"/>
			<path d="M230.69,32.26h-11.97v-7.25h11.44c0.48,0,0.84-0.37,0.84-0.85l0.01-3.67c0-0.49-0.36-0.85-0.84-0.85h-11.44l-0.01-6.79
				h11.97c0.47,0,0.84-0.39,0.84-0.89V8.34c0-0.48-0.35-0.84-0.84-0.84h-17.54c-0.47,0-0.87,0.41-0.87,0.88v28.23
				c0,0.49,0.39,0.88,0.87,0.88h17.54c0.51,0,0.87-0.35,0.87-0.84v-3.54C231.55,32.61,231.2,32.26,230.69,32.26z"/>
			<path d="M258.05,23.75v-0.62c4.3-0.62,6.14-2.81,6.14-7.29c0-5.73-2.88-8.34-9.34-8.34h-12.34c-0.47,0-0.88,0.41-0.88,0.88v28.28
				c0,0.48,0.36,0.84,0.84,0.84h4.78c0.48,0,0.84-0.36,0.84-0.84V25.87l4.53,0.16c3.1,0.09,5.04,0.69,5.17,3.39l0.35,7.3
				c0,0.45,0.36,0.77,0.87,0.77h4.81c0.43,0,0.8-0.48,0.8-0.83l-0.21-5.98C264.18,25.24,262.09,24.03,258.05,23.75z M257.6,16.9
				c0,3.27-1.78,4.02-4.66,4.17l-4.85,0.26v-8.79h5.5C256.48,12.54,257.6,13.76,257.6,16.9z"/>
			<path d="M297.32,11.34c-0.03-0.04-0.66-0.94-2.43-2.29c-1.31-1.01-4.38-2.02-8.27-2.02c-10.87,0-13.1,6.11-13.1,15.28
				c0,4.85,0.86,8.79,2.35,10.82c1.09,1.49,2.35,2.3,2.39,2.33c2.01,1.41,4.75,2.1,8.36,2.1c10.88,0,13.11-6.1,13.11-15.25
				C299.73,17.17,298.99,13.79,297.32,11.34L297.32,11.34z M280.31,22.27c0-6.94,0.64-10.21,6.49-10.21c2.09,0,3.53,0.42,4.49,1.33
				l-10.69,13.65C280.34,25.62,280.31,23.92,280.31,22.27z M292.76,22.27c0,6.94-0.64,10.21-6.47,10.21c-2.15,0-3.61-0.43-4.57-1.36
				l10.75-13.68C292.72,18.85,292.76,20.58,292.76,22.27z"/>
			<path d="M321.08,7.5h-11.19c-0.47,0-0.84,0.39-0.84,0.88v28.23c0,0.5,0.36,0.88,0.84,0.88h11.19c9.05,0,12.42-4.21,12.42-14.98
				C333.5,11.79,330.13,7.5,321.08,7.5z M326.87,22.52c0,8.38-1.9,9.95-6.44,9.95h-4.93V12.54h4.93
				C324.98,12.54,326.87,14.14,326.87,22.52z"/>
		</g>
		<g>
			<path d="M116.37,67.04l11.55-13.43c0.08-0.08,0.17-0.24,0.17-0.39c0-0.38-0.33-0.73-0.69-0.73h-2.98c-0.31,0-0.63,0.3-0.69,0.36
				l-10.54,12.47h-0.89V53.46c0-0.54-0.41-0.96-0.92-0.96h-1.97c-0.51,0-0.91,0.42-0.91,0.96v28.08c0,0.54,0.4,0.96,0.91,0.96h1.97
				c0.52,0,0.92-0.42,0.92-0.96V69.08h0.89l11.08,13.09c0.07,0.07,0.38,0.34,0.68,0.34h3.41c0.36,0,0.69-0.35,0.69-0.72
				c0-0.14-0.09-0.3-0.15-0.37L116.37,67.04z"/>
			<path d="M145.97,51.97c-10.43,0-12.56,6.19-12.56,15.49c0,9.33,2.14,15.55,12.56,15.55c10.39,0,12.52-6.22,12.52-15.55
				C158.49,58.16,156.36,51.97,145.97,51.97z M154.58,67.46c0,7.17-0.6,11.87-8.65,11.87c-7.99,0-8.57-4.46-8.57-11.82
				c0-7.38,0.58-11.86,8.57-11.86C153.98,55.64,154.58,60.32,154.58,67.46z"/>
			<path d="M194.23,52.5h-5.74c-0.42,0-0.82,0.33-1.02,0.89l-6,24.58l-5.72-24.58c-0.1-0.43-0.5-0.89-1.03-0.89h-5.77
				c-0.48,0-0.84,0.37-0.92,0.94l-2.14,28.1c0,0.5,0.41,0.92,0.91,0.92h1.81c0.49,0,0.86-0.37,0.92-0.93l2.12-25.55h0.81l6.38,25.65
				c0.1,0.43,0.51,0.88,1.02,0.88h3.07c0.51,0,0.87-0.43,1.02-0.88l6.6-25.65h0.82l2.2,25.55c0.05,0.53,0.44,0.93,0.92,0.93h1.96
				c0.27,0,0.55-0.12,0.72-0.33c0.14-0.16,0.21-0.36,0.19-0.57l-2.21-28.13C195.07,52.87,194.7,52.5,194.23,52.5z"/>
			<path d="M235.48,52.5h-5.74c-0.49,0-0.86,0.43-1.02,0.89l-6,24.58L217,53.38c-0.11-0.43-0.52-0.88-1.03-0.88h-5.77
				c-0.49,0-0.86,0.37-0.92,0.94l-2.15,28.1c0,0.5,0.41,0.92,0.92,0.92h1.81c0.5,0,0.86-0.37,0.92-0.93l2.12-25.55h0.81l6.39,25.65
				c0.1,0.44,0.51,0.89,1.02,0.89h3.07c0.43,0,0.82-0.33,1.01-0.88l6.6-25.65h0.82l2.2,25.56c0.06,0.52,0.45,0.92,0.92,0.92h1.96
				c0.27,0,0.55-0.12,0.73-0.33c0.14-0.16,0.21-0.36,0.19-0.57l-2.21-28.13C236.34,52.88,235.96,52.5,235.48,52.5z"/>
			<path d="M269.07,52.52l-2.33-0.02l-0.1,0.02c-0.19,0.06-0.68,0.22-0.68,0.83v19.37c0,4.76-2.16,6.7-7.45,6.7
				c-6.24,0-7.47-2.72-7.47-7.42V53.37c0-0.42-0.24-0.85-0.7-0.85L248,52.5l-0.1,0.02c-0.18,0.06-0.67,0.21-0.67,0.83v18.38
				c0,7.97,3.37,11.37,11.27,11.37c9.9,0,11.26-5.58,11.26-11.62V53.37C269.77,52.88,269.47,52.52,269.07,52.52z"/>
			<path d="M303.73,52.5h-2.15c-0.49,0-0.81,0.33-0.81,0.84v25.47l-13.28-25.49c-0.1-0.2-0.39-0.82-1-0.82h-5.63
				c-0.52,0-0.93,0.42-0.93,0.96v28.08c0,0.54,0.41,0.96,0.93,0.96h1.97c0.52,0,0.92-0.42,0.92-0.96V55.93h0.8l13.63,25.75
				c0.31,0.68,0.72,0.82,1,0.82h4.49c0.52,0,0.92-0.42,0.92-0.96v-28.2C304.58,52.81,304.26,52.5,303.73,52.5z"/>
			<path d="M332.58,56.13c0.51,0,0.92-0.43,0.92-0.96v-1.71c0-0.54-0.41-0.96-0.92-0.96h-16.69c-0.5,0-0.92,0.44-0.92,0.96v28.08
				c0,0.54,0.4,0.96,0.92,0.96h16.72c0.49,0,0.89-0.43,0.89-0.96v-1.71c0-0.52-0.4-0.95-0.89-0.95h-13.83v-10.2h13.28
				c0.51,0,0.88-0.41,0.88-0.96v-1.75c0-0.55-0.38-0.96-0.88-0.96h-13.28v-8.88H332.58z"/>
		</g>
	</g>
</g>
</svg>
