<svg xmlns="http://www.w3.org/2000/svg" viewBox="0 0 441.15 176.4"><defs><style>.cls-1{fill:#fff;}.cls-2{fill:#56af31;}.cls-3{fill:#0078bf;}.cls-4{fill:#1d1d1b;}.cls-5{fill:#e73137;}</style></defs><g id="Layer_2" data-name="Layer 2"><g id="Layer_1-2" data-name="Layer 1"><polygon points="174.09 160.65 174.09 127 177.41 127 177.41 146.55 195.94 126.95 199.59 126.95 185.84 141.76 200.3 160.65 196.56 160.65 183.71 143.75 177.41 150.3 177.41 160.65 174.09 160.65"/><path d="M220.9,160.88a14.4,14.4,0,0,1-6.45-1.42,15.33,15.33,0,0,1-5-3.86,18.2,18.2,0,0,1-3.23-5.5,18,18,0,0,1-1.13-6.28A17.65,17.65,0,0,1,209.64,132a16.17,16.17,0,0,1,5.05-3.79,14.21,14.21,0,0,1,6.26-1.4,14,14,0,0,1,6.44,1.47,15.7,15.7,0,0,1,5,3.93,19.05,19.05,0,0,1,3.2,5.5,17.79,17.79,0,0,1-3.37,18.08,15.72,15.72,0,0,1-5,3.77,14.36,14.36,0,0,1-6.26,1.37m-12.47-17.06a15.68,15.68,0,0,0,.9,5.29,14.47,14.47,0,0,0,2.56,4.5,12.69,12.69,0,0,0,4,3.13,11.1,11.1,0,0,0,5.05,1.16,10.92,10.92,0,0,0,5.19-1.21,12.48,12.48,0,0,0,3.93-3.22,14.61,14.61,0,0,0,2.49-4.53,15.77,15.77,0,0,0,.86-5.12,15.51,15.51,0,0,0-.9-5.26,14.49,14.49,0,0,0-2.59-4.5,12.35,12.35,0,0,0-4-3.13,11.66,11.66,0,0,0-10.16,0,12.09,12.09,0,0,0-3.94,3.2,15,15,0,0,0-2.51,4.52,15.62,15.62,0,0,0-.88,5.12"/><polygon points="275.94 160.65 275.94 133.25 263.76 154.53 261.68 154.53 249.45 133.25 249.45 160.65 246.13 160.65 246.13 127 249.54 127 262.67 150.03 275.9 127 279.26 127 279.26 160.65 275.94 160.65"/><polygon points="322.46 160.65 322.46 133.25 310.28 154.53 308.19 154.53 295.96 133.25 295.96 160.65 292.64 160.65 292.64 127 296.06 127 309.19 150.03 322.41 127 325.77 127 325.77 160.65 322.46 160.65"/><path d="M351.35,160.89a14.49,14.49,0,0,1-6.73-1.43,11.55,11.55,0,0,1-4.36-3.81,16.8,16.8,0,0,1-2.34-5.43,26.46,26.46,0,0,1-.74-6.25V127h3.27v17a23.59,23.59,0,0,0,.55,5.11,14.17,14.17,0,0,0,1.77,4.51,9.13,9.13,0,0,0,3.32,3.15,12.33,12.33,0,0,0,10.55-.05,9.11,9.11,0,0,0,3.32-3.2,14.37,14.37,0,0,0,1.73-4.48,25.06,25.06,0,0,0,.52-5V127h3.32v17a27.11,27.11,0,0,1-.76,6.44,15.33,15.33,0,0,1-2.44,5.4,12.1,12.1,0,0,1-4.39,3.7,14.36,14.36,0,0,1-6.59,1.38"/><polygon points="380.85 133.11 380.85 160.65 377.53 160.65 377.53 127 380.28 127 402.37 155.06 402.37 127.05 405.69 127.05 405.69 160.65 402.61 160.65 380.85 133.11"/><polygon points="418.47 127 418.47 160.65 441.08 160.65 441.08 157.71 421.78 157.71 421.78 144.87 438.23 144.87 438.23 142.07 421.78 142.07 421.78 129.94 440.65 129.94 440.65 127 418.47 127"/><path d="M441.15,15.58H404.72v47A47.43,47.43,0,0,0,418.34,94c9.29,9.29,21.88,11.91,22,11.93l.81.17V97.77h0c-2.61-.69-10.86-3.27-17.11-9.53a39,39,0,0,1-11.22-25.56V54.41h28.33V46.24H412.82V23.75h28.33Z"/><path d="M376.39,15.57h-8.1v47A47.54,47.54,0,0,0,381.91,94c9.22,9.22,21.89,11.91,22,11.93l.78.17h0V97.77c-2.61-.7-10.86-3.28-17.11-9.53a39,39,0,0,1-11.22-25.58Z"/><path d="M352.14,15.57H315.71v8.17h28.34V62.66a39,39,0,0,1-11.23,25.58c-6.25,6.25-14.49,8.83-17.11,9.53v8.37h0l.78-.17c.13,0,12.8-2.71,22-11.93a47.48,47.48,0,0,0,13.62-31.43Z"/><path d="M299.56,15.58H263.13v47A47.33,47.33,0,0,0,276.75,94c9.29,9.29,21.88,11.91,22,11.93l.8.17V97.77h0c-2.61-.69-10.85-3.27-17.11-9.53a39,39,0,0,1-11.22-25.56V54.41h28.33V46.24H271.23V23.75h28.33Z"/><path d="M247,15.62h-8.09v44.1a15.6,15.6,0,0,1-.18,2.1,31.41,31.41,0,0,1-2.59,8.56,41.23,41.23,0,0,1-8.52,12.05c-1.87,1.88-4,3.8-6.2,5.61-3.26,2.72-6.56,5.19-9,7l-1.83,1.32c-1.21-.86-2.82-2-4.64-3.38s-4.12-3.15-6.27-5-4.3-3.71-6.15-5.57a43.12,43.12,0,0,1-6.53-8.26,34.88,34.88,0,0,1-4.16-10.09,26.17,26.17,0,0,1-.53-3.11c-.07-.75-.08-1.19-.08-1.25V15.62h-8.08v44.1a23.67,23.67,0,0,0,.26,3.24,39.92,39.92,0,0,0,3.24,10.78,49.53,49.53,0,0,0,10.16,14.41c2.11,2.11,4.43,4.17,6.74,6.1,3.46,2.88,6.89,5.46,9.47,7.32s4.29,3,4.32,3l2.25,1.5,2.24-1.5s3.09-2.06,7.16-5.12c2-1.52,4.33-3.31,6.63-5.23s4.63-4,6.74-6.1A50.65,50.65,0,0,0,241,78.34a42.82,42.82,0,0,0,5.12-12.44,34.26,34.26,0,0,0,.7-4.11c.1-1.06.12-1.78.12-2.07Z"/><path class="cls-1" d="M70.37,175.23s24.56-5,42.66-22.9C140.19,125.45,139.58,92,139.58,92V1.14H1.16V92S.55,125.45,27.7,152.33c18.11,17.91,42.68,22.9,42.68,22.9Z"/><path class="cls-2" d="M139.58,92.68A20.38,20.38,0,0,0,120.92,80.6c-.54,0-1.07,0-1.6.06-.17-2.93-.49-8.72-.79-14.89l5.26-5.89c1.76.56,5.4,1.34,7.71-1,3.15-3.12,2.94-6.4,3.21-8.47a16.14,16.14,0,0,1,.88-3.65h0a16.26,16.26,0,0,1-3.69.87c-2.09.27-5.41.06-8.55,3.17-2.32,2.3-1.54,5.91-1,7.64l-4,3.51c-.27-6.18-.48-12.2-.45-15.61,0-.14,0-.28,0-.42l5.14-5.76c1.76.56,5.4,1.34,7.71-1,3.15-3.11,2.94-6.4,3.21-8.47a16.52,16.52,0,0,1,.87-3.65h0a16.26,16.26,0,0,1-3.69.87c-2.09.27-5.41.06-8.56,3.18-2.31,2.29-1.53,5.9-1,7.63l-3.75,3.27c-.09-6.33-.4-14.44-.52-17.5,1.69-.89,4.56-2.85,4.56-6,0-4.4-2.49-6.58-3.78-8.23a16.27,16.27,0,0,1-2-3.19h0a16.27,16.27,0,0,1-2,3.19c-1.28,1.65-3.78,3.83-3.78,8.23,0,3.09,2.85,5.05,4.54,5.95-.12,3-.43,11.15-.52,17.49l-3.72-3.25c.57-1.73,1.36-5.34-1-7.63-3.15-3.12-6.47-2.91-8.55-3.18a16.07,16.07,0,0,1-3.69-.87h0a15.86,15.86,0,0,1,.87,3.65c.27,2.07.07,5.36,3.21,8.47,2.32,2.29,6,1.51,7.71,1l5.13,5.74v.44c0,3.4-.17,9.42-.45,15.59l-4-3.49c.58-1.73,1.36-5.34-1-7.64-3.15-3.11-6.47-2.9-8.56-3.17a16.26,16.26,0,0,1-3.69-.87h0a15.86,15.86,0,0,1,.87,3.65c.27,2.07.07,5.35,3.21,8.47,2.32,2.29,6,1.51,7.71,1l5.24,5.87c-.36,7.49-.76,14.45-.87,16.37-5.5,2.16-9.88,6.47-11.2,12-4,16.47-2.81,16.61-16.27,76.2,8.32-3.51,18.74-9.18,27.62-18,24.89-24.64,26.45-54.79,26.54-59.65"/><path class="cls-2" d="M1.14,92.68A20.39,20.39,0,0,1,19.81,80.6q.8,0,1.59.06c.17-2.93.49-8.72.79-14.89l-5.26-5.89c-1.76.56-5.4,1.34-7.71-1C6.08,55.81,6.28,52.53,6,50.46a15.86,15.86,0,0,0-.87-3.65h0a16.26,16.26,0,0,0,3.69.87c2.09.27,5.41.06,8.56,3.17,2.31,2.3,1.53,5.91.95,7.64l4,3.51c.27-6.18.49-12.2.45-15.61,0-.14,0-.28,0-.42L17.67,40.2c-1.76.56-5.39,1.34-7.71-1C6.82,36.14,7,32.85,6.75,30.78a15.86,15.86,0,0,0-.87-3.65h0A16.26,16.26,0,0,0,9.57,28c2.09.27,5.41.06,8.56,3.18,2.32,2.29,1.53,5.9.95,7.63l3.75,3.27c.09-6.33.4-14.44.52-17.5-1.69-.89-4.56-2.85-4.56-6,0-4.4,2.5-6.58,3.78-8.23a16.27,16.27,0,0,0,2-3.19h0a16.27,16.27,0,0,0,2,3.19c1.28,1.65,3.78,3.83,3.78,8.23,0,3.09-2.85,5.05-4.54,5.95.12,3,.43,11.15.52,17.49l3.73-3.25c-.58-1.73-1.36-5.34.95-7.63,3.15-3.12,6.47-2.91,8.56-3.18a16.26,16.26,0,0,0,3.69-.87h0a15.86,15.86,0,0,0-.87,3.65c-.27,2.07-.07,5.36-3.21,8.47-2.32,2.29-6,1.51-7.71,1l-5.12,5.74v.44c0,3.4.18,9.42.45,15.59l4-3.49c-.58-1.73-1.36-5.34,1-7.64,3.14-3.11,6.46-2.9,8.55-3.17A16.26,16.26,0,0,0,44,46.8h0a16.52,16.52,0,0,0-.87,3.65c-.27,2.07-.06,5.35-3.21,8.47-2.32,2.29-5.95,1.51-7.71,1L27,65.75c.36,7.49.76,14.45.87,16.37,5.5,2.16,9.89,6.47,11.21,12,4,16.47,2.8,16.61,16.26,76.2-8.32-3.51-18.74-9.18-27.61-18C2.79,127.69,1.23,97.54,1.14,92.68"/><path class="cls-3" d="M73.7,146.09c0-8.09-7.93-12.87-7.93-22.31,0-14.09,9.19-18.33,9.19-28.07,0-14-9.19-16.34-9.19-27.92C65.77,57.69,75,53,75,41.89c0-11.29-9.19-14.68-9.19-25.75,0-7.06,3.58-10.35,6.26-15H61.37c-2.67,4.65-6.26,7.94-6.26,15,0,11.07,9.19,14.46,9.19,25.75,0,11.06-9.19,15.8-9.19,25.9,0,11.58,9.19,13.89,9.19,27.92,0,9.74-9.19,14-9.19,28.07,0,9.44,7.94,14.22,7.94,22.31,0,9.82-6,10.71-6,20.66a27.53,27.53,0,0,0,.34,4.36,94.31,94.31,0,0,0,11.53,3.77,28.08,28.08,0,0,1-1.22-8.13c0-9.95,6-10.84,6-20.66"/><path class="cls-3" d="M88,146.09c0-8.09-7.93-12.87-7.93-22.31,0-14.09,9.19-18.33,9.19-28.07,0-14-9.19-16.34-9.19-27.92,0-10.1,9.19-14.84,9.19-25.9,0-11.29-9.19-14.68-9.19-25.75,0-7.06,3.58-10.35,6.26-15H75.65c-2.67,4.65-6.26,7.94-6.26,15,0,11.07,9.19,14.46,9.19,25.75,0,11.06-9.19,15.8-9.19,25.9,0,11.58,9.19,13.89,9.19,27.92,0,9.74-9.19,14-9.19,28.07,0,9.44,7.94,14.22,7.94,22.31,0,9.82-6.06,10.71-6.06,20.66a27.86,27.86,0,0,0,1.18,8,95.07,95.07,0,0,0,9.9-3.21,27.67,27.67,0,0,1-.42-4.77c0-9.95,6-10.84,6-20.66"/><path class="cls-4" d="M138.43,2.29V92.1c0,2-.44,33.92-26.21,59.42-16.73,16.55-39.36,22-41.85,22.54-2.49-.56-25.12-6-41.85-22.54C2.75,126,2.31,94.08,2.31,92.12V2.29ZM0,0V92c0,.32-.3,34.23,26.89,61.14,18.14,18,43,23.16,43.25,23.21l.24.05.22-.05c.25,0,25.12-5.26,43.25-23.21C141,126.23,140.75,92.32,140.74,92V0Z"/><path class="cls-5" d="M43,113.09a55.1,55.1,0,0,1,54.78,0c1.47-7.61,2.16-11.53,4-19a15.07,15.07,0,0,1,1.75-4.25,71.25,71.25,0,0,0-66.18,0A15.07,15.07,0,0,1,39,94.09c1.8,7.47,2.48,11.39,4,19"/></g></g></svg>